<svg width="135" height="40" viewBox="0 0 135 40" fill="none" xmlns="http://www.w3.org/2000/svg">
<path d="M124.249 0.00013H10.7566C10.3429 0.00013 9.9342 0.00013 9.5216 0.00212999C9.17621 0.00412999 8.83358 0.00993997 8.48488 0.01483C7.72733 0.0227317 6.97157 0.081806 6.22416 0.191539C5.4778 0.303662 4.75482 0.515044 4.07967 0.818537C3.40534 1.1246 2.7892 1.52229 2.25358 1.99719C1.71514 2.47076 1.26632 3.01814 0.924356 3.61828C0.581453 4.21723 0.343683 4.85905 0.219258 5.52159C0.0936495 6.1833 0.0260586 6.85263 0.0170916 7.52359C0.00662229 7.83018 0.00551669 8.1378 0 8.44444V31.5586C0.00551669 31.8691 0.00662229 32.1699 0.0170916 32.4805C0.0260614 33.1514 0.0936522 33.8207 0.219258 34.4824C0.343339 35.1453 0.581124 35.7875 0.924356 36.3867C1.26616 36.9849 1.71505 37.5301 2.25358 38.001C2.78717 38.478 3.40371 38.876 4.07967 39.1797C4.75481 39.484 5.47772 39.6967 6.22416 39.8105C6.9717 39.9194 7.72738 39.9785 8.48488 39.9873C8.83358 39.9941 9.17621 39.998 9.5216 39.998C9.93419 40 10.343 40 10.7566 40H124.249C124.655 40 125.067 40 125.472 39.998C125.816 39.998 126.169 39.9941 126.512 39.9873C127.268 39.9789 128.023 39.9198 128.769 39.8105C129.518 39.6959 130.243 39.4833 130.921 39.1797C131.597 38.8758 132.213 38.4779 132.746 38.001C133.283 37.5282 133.733 36.9835 134.079 36.3867C134.42 35.7871 134.655 35.145 134.777 34.4824C134.903 33.8207 134.973 33.1515 134.987 32.4805C134.991 32.1699 134.991 31.8691 134.991 31.5586C135 31.1953 135 30.834 135 30.4648V9.53623C135 9.17002 135 8.80674 134.991 8.44444C134.991 8.1378 134.991 7.83018 134.987 7.52355C134.973 6.85253 134.903 6.18335 134.777 5.52155C134.655 4.8594 134.419 4.21762 134.079 3.61824C133.383 2.41532 132.278 1.43615 130.921 0.818447C130.243 0.515696 129.518 0.304369 128.769 0.191449C128.023 0.0812325 127.269 0.0221377 126.512 0.01469C126.169 0.00980997 125.816 0.00394999 125.472 0.00199999C125.067 0 124.655 0 124.249 0V0.00013Z" fill="#F0E7D8"/>
<path d="M9.54027 38.998C9.19662 38.998 8.86127 38.9941 8.52032 38.9874C7.81401 38.9793 7.10934 38.9251 6.41211 38.8254C5.76198 38.7267 5.13217 38.5433 4.54347 38.2811C3.96017 38.021 3.42815 37.68 2.96779 37.2712C2.50078 36.8671 2.11196 36.3985 1.81676 35.8839C1.5183 35.3659 1.31176 34.8107 1.20431 34.2376C1.08827 33.6218 1.0255 32.9991 1.01651 32.3749C1.00936 32.1654 1 31.4679 1 31.4679V8.51947C1 8.51947 1.00997 7.83262 1.01657 7.63083C1.02517 7.00764 1.08758 6.38594 1.20327 5.77109C1.31092 5.19642 1.51762 4.63961 1.81624 4.11994C2.11036 3.60566 2.49701 3.13669 2.96122 2.7312C3.4249 2.32186 3.95862 1.97911 4.54292 1.71547C5.13027 1.45408 5.75888 1.27193 6.4077 1.17511C7.10722 1.07434 7.81433 1.01986 8.52309 1.01213L9.54082 1H125.454L126.484 1.01262C127.186 1.01997 127.887 1.07396 128.58 1.17414C129.235 1.27217 129.87 1.45559 130.464 1.71838C131.635 2.2497 132.587 3.0903 133.188 4.12236C133.482 4.63845 133.686 5.19072 133.792 5.76042C133.909 6.38031 133.974 7.0069 133.988 7.6352C133.991 7.91653 133.991 8.21873 133.991 8.51947C134 8.892 134 9.24658 134 9.60407V30.3949C134 30.7558 134 31.1079 133.991 31.463C133.991 31.786 133.991 32.082 133.987 32.3866C133.974 33.0036 133.909 33.619 133.794 34.2278C133.689 34.8051 133.483 35.3646 133.185 35.8868C132.888 36.3959 132.501 36.8605 132.039 37.2634C131.579 37.6745 131.046 38.0175 130.461 38.2792C129.869 38.5434 129.234 38.7275 128.58 38.8254C127.882 38.9257 127.178 38.9798 126.471 38.9874C126.141 38.9941 125.795 38.998 125.459 38.998L124.237 39L9.54027 38.998Z" fill="#001D55"/>
<path d="M25.6586 20.763C25.6706 19.8431 25.9177 18.9411 26.3769 18.141C26.836 17.3409 27.4924 16.6687 28.2849 16.1869C27.7814 15.4758 27.1173 14.8907 26.3452 14.4779C25.5731 14.065 24.7143 13.836 23.837 13.8088C21.9656 13.6146 20.1513 14.9163 19.1977 14.9163C18.2256 14.9163 16.7573 13.8281 15.1762 13.8603C14.1536 13.893 13.1569 14.1871 12.2833 14.714C11.4097 15.2408 10.689 15.9825 10.1915 16.8668C8.03614 20.5572 9.64381 25.9808 11.7084 28.9638C12.7414 30.4246 13.9486 32.0562 15.5283 31.9983C17.0741 31.9349 17.6514 31.0235 19.5173 31.0235C21.3659 31.0235 21.9076 31.9983 23.5193 31.9616C25.178 31.9349 26.223 30.4944 27.2198 29.0198C27.962 27.979 28.5331 26.8287 28.9119 25.6115C27.9483 25.2084 27.1259 24.5337 26.5474 23.6715C25.9689 22.8093 25.6598 21.7978 25.6586 20.763Z" fill="#F0E7D8"/>
<path d="M22.6152 11.8471C23.5195 10.7734 23.9651 9.39335 23.8572 8C22.4755 8.14352 21.1992 8.7966 20.2826 9.82911C19.8344 10.3335 19.4912 10.9203 19.2725 11.556C19.0538 12.1917 18.9639 12.8638 19.008 13.5338C19.6991 13.5408 20.3828 13.3927 21.0076 13.1005C21.6324 12.8084 22.1821 12.3798 22.6152 11.8471Z" fill="#F0E7D8"/>
<path d="M48.7744 27.0557H43.9882L42.8388 30.4121H40.8115L45.345 17.9941H47.4512L51.9847 30.4121H49.9228L48.7744 27.0557ZM44.4839 25.5069H48.2778L46.4075 20.0596H46.3552L44.4839 25.5069Z" fill="#F0E7D8"/>
<path d="M61.7759 25.8857C61.7759 28.6992 60.2532 30.5068 57.9554 30.5068C57.3733 30.5369 56.7944 30.4043 56.285 30.1242C55.7756 29.844 55.3562 29.4277 55.075 28.9228H55.0315V33.4072H53.1523V21.3584H54.9713V22.8642H55.0058C55.3 22.3618 55.7265 21.9476 56.2398 21.6657C56.7531 21.3839 57.334 21.2449 57.9208 21.2636C60.2443 21.2636 61.7759 23.08 61.7759 25.8857ZM59.8444 25.8857C59.8444 24.0527 58.8866 22.8476 57.4251 22.8476C55.9894 22.8476 55.0236 24.0781 55.0236 25.8857C55.0236 27.7099 55.9894 28.9316 57.4251 28.9316C58.8866 28.9316 59.8444 27.7353 59.8444 25.8857Z" fill="#F0E7D8"/>
<path d="M71.8521 25.8857C71.8521 28.6992 70.3294 30.5068 68.0316 30.5068C67.4495 30.5369 66.8706 30.4043 66.3612 30.1242C65.8518 29.844 65.4324 29.4277 65.1511 28.9228H65.1077V33.4072H63.2285V21.3584H65.0474V22.8642H65.082C65.3762 22.3617 65.8026 21.9476 66.3159 21.6657C66.8292 21.3839 67.4102 21.2449 67.997 21.2636C70.3205 21.2636 71.8521 23.08 71.8521 25.8857ZM69.9206 25.8857C69.9206 24.0527 68.9627 22.8476 67.5013 22.8476C66.0655 22.8476 65.0998 24.0781 65.0998 25.8857C65.0998 27.7099 66.0655 28.9316 67.5013 28.9316C68.9628 28.9316 69.9206 27.7353 69.9206 25.8857H69.9206Z" fill="#F0E7D8"/>
<path d="M78.5115 26.9522C78.6507 28.1837 79.8604 28.9922 81.5134 28.9922C83.0973 28.9922 84.2368 28.1836 84.2368 27.0732C84.2368 26.1094 83.5495 25.5322 81.9222 25.1367L80.2949 24.749C77.9891 24.1982 76.9187 23.1318 76.9187 21.4014C76.9187 19.2588 78.8068 17.7871 81.4877 17.7871C84.141 17.7871 85.9599 19.2588 86.0212 21.4014H84.1242C84.0107 20.1621 82.9748 19.4141 81.461 19.4141C79.9473 19.4141 78.9114 20.1709 78.9114 21.2725C78.9114 22.1504 79.573 22.667 81.1915 23.0625L82.5749 23.3984C85.1512 24.0009 86.2216 25.0244 86.2216 26.8408C86.2216 29.164 84.3504 30.6191 81.3741 30.6191C78.5895 30.6191 76.7094 29.1982 76.5879 26.9521L78.5115 26.9522Z" fill="#F0E7D8"/>
<path d="M90.2767 19.2158V21.3584H92.0176V22.8301H90.2767V27.8213C90.2767 28.5967 90.6253 28.958 91.3906 28.958C91.5973 28.9544 91.8036 28.9401 92.0088 28.915V30.3779C91.6647 30.4415 91.315 30.4703 90.965 30.4638C89.1115 30.4638 88.3887 29.7754 88.3887 28.0195V22.8301H87.0576V21.3584H88.3887V19.2158H90.2767Z" fill="#F0E7D8"/>
<path d="M93.0254 25.8857C93.0254 23.0371 94.7218 21.2471 97.3673 21.2471C100.022 21.2471 101.71 23.0371 101.71 25.8857C101.71 28.7422 100.03 30.5244 97.3673 30.5244C94.705 30.5244 93.0254 28.7422 93.0254 25.8857ZM99.7954 25.8857C99.7954 23.9316 98.8899 22.7783 97.3673 22.7783C95.8446 22.7783 94.9401 23.9404 94.9401 25.8857C94.9401 27.8477 95.8446 28.9922 97.3673 28.9922C98.8899 28.9922 99.7954 27.8477 99.7954 25.8857H99.7954Z" fill="#F0E7D8"/>
<path d="M103.26 21.3585H105.052V22.8995H105.096C105.217 22.4182 105.502 21.9929 105.903 21.695C106.304 21.3971 106.796 21.2449 107.298 21.2638C107.514 21.263 107.73 21.2863 107.941 21.3331V23.0714C107.668 22.9888 107.383 22.9509 107.097 22.9591C106.824 22.9481 106.552 22.9958 106.299 23.0986C106.047 23.2015 105.82 23.3573 105.633 23.5551C105.447 23.753 105.307 23.9884 105.222 24.2451C105.136 24.5017 105.108 24.7736 105.139 25.0421V30.4122H103.26L103.26 21.3585Z" fill="#F0E7D8"/>
<path d="M116.606 27.7529C116.353 29.3965 114.735 30.5244 112.664 30.5244C110.001 30.5244 108.348 28.7598 108.348 25.9287C108.348 23.0889 110.01 21.2471 112.585 21.2471C115.118 21.2471 116.711 22.9678 116.711 25.7129V26.3496H110.245V26.4619C110.215 26.7951 110.257 27.1308 110.368 27.4466C110.48 27.7625 110.658 28.0512 110.891 28.2938C111.124 28.5363 111.406 28.7271 111.719 28.8534C112.033 28.9797 112.369 29.0387 112.707 29.0264C113.151 29.0675 113.597 28.9658 113.978 28.7364C114.359 28.5069 114.655 28.162 114.821 27.7529L116.606 27.7529ZM110.253 25.0508H114.83C114.847 24.7512 114.801 24.4514 114.695 24.1702C114.59 23.889 114.426 23.6324 114.215 23.4167C114.004 23.2009 113.751 23.0305 113.47 22.9163C113.19 22.8021 112.888 22.7465 112.585 22.7529C112.279 22.7511 111.976 22.8093 111.692 22.924C111.409 23.0388 111.152 23.2078 110.935 23.4215C110.718 23.6351 110.546 23.8891 110.429 24.1687C110.312 24.4484 110.253 24.7482 110.253 25.0508V25.0508Z" fill="#F0E7D8"/>
<path d="M44.2487 8.72943C44.6426 8.70147 45.038 8.76033 45.4061 8.90176C45.7743 9.04319 46.1062 9.26367 46.3777 9.5473C46.6493 9.83092 46.8539 10.1706 46.9766 10.5419C47.0994 10.9132 47.1373 11.3068 47.0876 11.6943C47.0876 13.6005 46.0459 14.6963 44.2487 14.6963H42.0693V8.72943H44.2487ZM43.0064 13.8524H44.144C44.4255 13.8691 44.7072 13.8234 44.9687 13.7188C45.2301 13.6142 45.4646 13.4532 45.6552 13.2477C45.8458 13.0421 45.9877 12.7971 46.0704 12.5305C46.1532 12.2639 46.1748 11.9824 46.1337 11.7064C46.1719 11.4316 46.148 11.1518 46.064 10.8872C45.98 10.6225 45.8378 10.3795 45.6476 10.1756C45.4574 9.97163 45.224 9.81182 44.9641 9.70759C44.7041 9.60335 44.4241 9.55727 44.144 9.57264H43.0064V13.8524Z" fill="#F0E7D8"/>
<path d="M48.1459 12.4428C48.1173 12.1469 48.1515 11.8483 48.2464 11.5663C48.3413 11.2842 48.4947 11.0249 48.6969 10.8049C48.8991 10.5849 49.1455 10.4091 49.4204 10.2889C49.6953 10.1686 49.9926 10.1064 50.2931 10.1064C50.5937 10.1064 50.891 10.1686 51.1659 10.2889C51.4408 10.4091 51.6872 10.5849 51.8894 10.8049C52.0916 11.0249 52.245 11.2842 52.3399 11.5663C52.4348 11.8483 52.469 12.1469 52.4404 12.4428C52.4696 12.739 52.4357 13.038 52.3411 13.3206C52.2465 13.6031 52.0931 13.8629 51.8909 14.0833C51.6886 14.3037 51.442 14.4799 51.1669 14.6004C50.8917 14.7209 50.5941 14.7832 50.2931 14.7832C49.9922 14.7832 49.6946 14.7209 49.4194 14.6004C49.1443 14.4799 48.8976 14.3037 48.6954 14.0833C48.4932 13.8629 48.3398 13.6031 48.2452 13.3206C48.1506 13.038 48.1167 12.739 48.1459 12.4428ZM51.5161 12.4428C51.5161 11.4668 51.0727 10.896 50.2946 10.896C49.5135 10.896 49.0741 11.4668 49.0741 12.4428C49.0741 13.4267 49.5136 13.9931 50.2946 13.9931C51.0728 13.9931 51.5161 13.4228 51.5161 12.4428H51.5161Z" fill="#F0E7D8"/>
<path d="M58.1486 14.6963H57.2165L56.2754 11.3799H56.2043L55.2672 14.6963H54.3439L53.0889 10.1934H54.0003L54.8159 13.6294H54.8831L55.8192 10.1934H56.6813L57.6174 13.6294H57.6885L58.5002 10.1934H59.3988L58.1486 14.6963Z" fill="#F0E7D8"/>
<path d="M60.4551 10.1934H61.3201V10.9087H61.3872C61.5012 10.6518 61.6933 10.4364 61.9368 10.2926C62.1804 10.1488 62.4633 10.0838 62.746 10.1065C62.9675 10.09 63.19 10.123 63.3969 10.2031C63.6038 10.2832 63.7898 10.4083 63.9411 10.5692C64.0925 10.73 64.2053 10.9225 64.2712 11.1323C64.3372 11.3421 64.3545 11.5639 64.322 11.7813V14.6963H63.4234V12.0044C63.4234 11.2808 63.1054 10.9209 62.4409 10.9209C62.2905 10.914 62.1403 10.9393 62.0007 10.9952C61.8611 11.051 61.7354 11.136 61.6321 11.2444C61.5288 11.3528 61.4505 11.482 61.4024 11.6231C61.3544 11.7642 61.3377 11.914 61.3537 12.0621V14.6963H60.4551L60.4551 10.1934Z" fill="#F0E7D8"/>
<path d="M65.7539 8.43555H66.6525V14.6963H65.7539V8.43555Z" fill="#F0E7D8"/>
<path d="M67.9008 12.4429C67.8722 12.147 67.9064 11.8484 68.0013 11.5663C68.0962 11.2842 68.2497 11.0249 68.4519 10.8049C68.6541 10.5849 68.9005 10.4091 69.1755 10.2889C69.4504 10.1686 69.7476 10.1064 70.0483 10.1064C70.3489 10.1064 70.6461 10.1686 70.921 10.2889C71.196 10.4091 71.4424 10.5849 71.6446 10.8049C71.8468 11.0249 72.0003 11.2842 72.0952 11.5663C72.1901 11.8484 72.2243 12.147 72.1957 12.4429C72.2249 12.7391 72.191 13.0381 72.0963 13.3207C72.0017 13.6032 71.8483 13.863 71.646 14.0834C71.4438 14.3038 71.1972 14.4799 70.922 14.6005C70.6468 14.721 70.3492 14.7833 70.0483 14.7833C69.7473 14.7833 69.4497 14.721 69.1745 14.6005C68.8993 14.4799 68.6527 14.3038 68.4504 14.0834C68.2482 13.863 68.0948 13.6032 68.0001 13.3207C67.9055 13.0381 67.8716 12.7391 67.9008 12.4429ZM71.271 12.4429C71.271 11.4668 70.8276 10.896 70.0495 10.896C69.2684 10.896 68.829 11.4668 68.829 12.4429C68.829 13.4268 69.2684 13.9932 70.0495 13.9932C70.8276 13.9932 71.271 13.4229 71.271 12.4429H71.271Z" fill="#F0E7D8"/>
<path d="M73.1426 13.4228C73.1426 12.6123 73.7528 12.145 74.8361 12.0786L76.0694 12.0083V11.6196C76.0694 11.144 75.7515 10.8755 75.1373 10.8755C74.6356 10.8755 74.288 11.0576 74.1883 11.376H73.3183C73.4102 10.6025 74.1458 10.1064 75.1787 10.1064C76.3202 10.1064 76.9641 10.6684 76.9641 11.6196V14.6963H76.099V14.0635H76.028C75.8836 14.2905 75.681 14.4755 75.4407 14.5997C75.2004 14.7239 74.9311 14.7829 74.6603 14.7705C74.4692 14.7901 74.276 14.77 74.0932 14.7113C73.9104 14.6526 73.7421 14.5566 73.5991 14.4297C73.4561 14.3027 73.3416 14.1475 73.263 13.9741C73.1843 13.8007 73.1433 13.6129 73.1426 13.4228ZM76.0694 13.0381V12.6616L74.9575 12.7319C74.3305 12.7734 74.0461 12.9844 74.0461 13.3813C74.0461 13.7866 74.4016 14.0224 74.8904 14.0224C75.0336 14.0368 75.1783 14.0225 75.3158 13.9804C75.4534 13.9383 75.5809 13.8693 75.6909 13.7774C75.8009 13.6856 75.8911 13.5728 75.9562 13.4458C76.0212 13.3188 76.0597 13.1801 76.0694 13.0381Z" fill="#F0E7D8"/>
<path d="M78.1445 12.4429C78.1445 11.02 78.8841 10.1187 80.0345 10.1187C80.3191 10.1057 80.6015 10.1731 80.8488 10.313C81.096 10.4529 81.2979 10.6595 81.4308 10.9087H81.498V8.43555H82.3966V14.6963H81.5355V13.9849H81.4644C81.3212 14.2323 81.1123 14.4364 80.8603 14.5749C80.6082 14.7133 80.3227 14.781 80.0345 14.7705C78.8762 14.7705 78.1445 13.8692 78.1445 12.4429ZM79.0728 12.4429C79.0728 13.398 79.528 13.9727 80.2893 13.9727C81.0467 13.9727 81.5148 13.3897 81.5148 12.4468C81.5148 11.5083 81.0418 10.917 80.2893 10.917C79.5329 10.917 79.0727 11.4956 79.0727 12.4429H79.0728Z" fill="#F0E7D8"/>
<path d="M86.1146 12.4428C86.086 12.1469 86.1203 11.8483 86.2151 11.5663C86.31 11.2842 86.4635 11.0249 86.6657 10.8049C86.8678 10.5849 87.1143 10.4091 87.3891 10.2889C87.664 10.1686 87.9613 10.1064 88.2619 10.1064C88.5625 10.1064 88.8597 10.1686 89.1346 10.2889C89.4095 10.4091 89.6559 10.5849 89.8581 10.8049C90.0603 11.0249 90.2137 11.2842 90.3086 11.5663C90.4035 11.8483 90.4378 12.1469 90.4091 12.4428C90.4383 12.739 90.4045 13.038 90.3098 13.3206C90.2152 13.6031 90.0618 13.8629 89.8596 14.0833C89.6574 14.3037 89.4108 14.4799 89.1356 14.6004C88.8605 14.7209 88.5628 14.7832 88.2619 14.7832C87.9609 14.7832 87.6633 14.7209 87.3882 14.6004C87.113 14.4799 86.8664 14.3037 86.6642 14.0833C86.4619 13.8629 86.3086 13.6031 86.2139 13.3206C86.1193 13.038 86.0855 12.739 86.1146 12.4428ZM89.4849 12.4428C89.4849 11.4668 89.0415 10.896 88.2634 10.896C87.4823 10.896 87.0429 11.4668 87.0429 12.4428C87.0429 13.4267 87.4823 13.9931 88.2634 13.9931C89.0415 13.9931 89.4849 13.4228 89.4849 12.4428Z" fill="#F0E7D8"/>
<path d="M91.6143 10.1934H92.4793V10.9087H92.5464C92.6603 10.6518 92.8525 10.4364 93.096 10.2926C93.3396 10.1488 93.6225 10.0838 93.9052 10.1065C94.1267 10.09 94.3492 10.123 94.5561 10.2031C94.7629 10.2832 94.949 10.4083 95.1003 10.5692C95.2517 10.73 95.3645 10.9225 95.4304 11.1323C95.4963 11.3421 95.5137 11.5639 95.4812 11.7813V14.6963H94.5826V12.0044C94.5826 11.2808 94.2646 10.9209 93.6001 10.9209C93.4496 10.914 93.2995 10.9393 93.1599 10.9952C93.0203 11.051 92.8945 11.136 92.7913 11.2444C92.688 11.3528 92.6097 11.482 92.5616 11.6231C92.5135 11.7642 92.4969 11.914 92.5129 12.0621V14.6963H91.6143V10.1934Z" fill="#F0E7D8"/>
<path d="M100.559 9.07227V10.2139H101.545V10.9624H100.559V13.2778C100.559 13.7495 100.755 13.9561 101.203 13.9561C101.317 13.9557 101.432 13.9488 101.545 13.9355V14.6758C101.384 14.7043 101.221 14.7195 101.057 14.7212C100.057 14.7212 99.6593 14.3735 99.6593 13.5054V10.9624H98.9365V10.2138H99.6593V9.07227H100.559Z" fill="#F0E7D8"/>
<path d="M102.773 8.43555H103.664V10.917H103.735C103.855 10.6577 104.052 10.4411 104.301 10.2967C104.549 10.1524 104.836 10.0873 105.124 10.1104C105.344 10.0985 105.564 10.1349 105.769 10.2169C105.973 10.299 106.157 10.4246 106.307 10.585C106.457 10.7453 106.569 10.9364 106.635 11.1445C106.702 11.3526 106.721 11.5727 106.692 11.7891V14.6963H105.792V12.0083C105.792 11.2891 105.453 10.9248 104.819 10.9248C104.664 10.9123 104.509 10.9333 104.363 10.9863C104.218 11.0394 104.086 11.1232 103.977 11.2319C103.868 11.3407 103.784 11.4717 103.731 11.6158C103.679 11.76 103.658 11.9137 103.672 12.0664V14.6963H102.773L102.773 8.43555Z" fill="#F0E7D8"/>
<path d="M111.931 13.4805C111.809 13.8921 111.544 14.2481 111.183 14.4862C110.823 14.7244 110.389 14.8295 109.958 14.7833C109.658 14.7911 109.36 14.7343 109.084 14.6168C108.809 14.4992 108.562 14.3238 108.362 14.1027C108.162 13.8815 108.013 13.62 107.925 13.3361C107.838 13.0523 107.813 12.753 107.854 12.4591C107.814 12.1642 107.839 11.8642 107.926 11.5796C108.014 11.2949 108.162 11.0321 108.361 10.8091C108.56 10.586 108.806 10.4078 109.08 10.2866C109.355 10.1654 109.653 10.104 109.954 10.1065C111.221 10.1065 111.985 10.9625 111.985 12.3765V12.6866H108.77V12.7364C108.756 12.9017 108.777 13.068 108.831 13.2247C108.886 13.3815 108.973 13.5252 109.088 13.6467C109.202 13.7681 109.34 13.8646 109.494 13.93C109.648 13.9954 109.815 14.0283 109.982 14.0264C110.197 14.0519 110.415 14.0137 110.608 13.9164C110.801 13.8192 110.96 13.6675 111.066 13.4805L111.931 13.4805ZM108.77 12.0294H111.07C111.081 11.8782 111.06 11.7264 111.009 11.5837C110.957 11.441 110.876 11.3105 110.77 11.2007C110.665 11.0908 110.537 11.004 110.396 10.9458C110.254 10.8877 110.102 10.8594 109.949 10.8629C109.793 10.8609 109.639 10.8898 109.495 10.9477C109.351 11.0057 109.22 11.0915 109.111 11.2003C109.001 11.309 108.914 11.4383 108.855 11.5807C108.797 11.7231 108.768 11.8757 108.77 12.0294H108.77Z" fill="#F0E7D8"/>
</svg>
