<svg width="318" height="40" viewBox="0 0 318 40" fill="none" xmlns="http://www.w3.org/2000/svg">
<path d="M20.6953 22.006H20.7485C20.4506 21.5325 19.885 21.3166 19.3568 21.1295L14.999 19.5882C14.0564 19.2557 13.1137 18.9218 12.184 18.5505C11.6429 18.3346 10.1778 17.687 9.98348 17.5863C9.08001 17.133 8.2428 16.5582 7.49515 15.878C6.73382 15.1857 6.39705 14.4388 5.85304 13.417C5.6792 13.0509 5.52405 12.6762 5.38819 12.2944C5.23276 11.7634 6.04014 11.913 6.26177 12.0785C7.02845 12.6274 7.84295 13.1062 8.69542 13.5091C13.544 15.947 18.6257 17.8943 23.6931 19.8271C23.8773 19.8976 24.1507 19.9307 24.2141 19.7436C24.2774 19.5565 24.0702 19.4284 23.9061 19.355C21.9344 18.481 19.9675 17.5973 18.0055 16.7041L10.0324 13.0687C8.35578 12.3045 6.66042 11.5288 5.21405 10.3875C3.65254 9.15413 2.44507 7.52066 1.59164 5.73033C1.16904 4.83608 0.825212 3.90669 0.564068 2.95272C0.372657 2.25903 0.148146 1.56535 0.0603557 0.84864C0.0229371 0.55217 -0.115224 0.0829954 0.217226 0.00527982C0.451811 -0.0508481 0.851902 0.356439 1.02173 0.473012C2.42348 1.43246 3.83868 2.37273 5.2673 3.2938C8.12455 5.13595 11.0312 6.89654 13.9873 8.57558C17.2983 10.4561 20.667 12.234 24.0932 13.9092C25.4566 14.5808 26.8281 15.2323 28.2078 15.8636C29.3806 16.3966 30.409 17.2024 31.207 18.2138C32.0663 19.2647 33.2107 20.0452 34.5028 20.4617C34.7154 20.5324 34.9341 20.5835 35.1561 20.6143C35.3238 20.633 35.4925 20.6417 35.6613 20.6402C36.7253 20.6536 37.7884 20.6282 38.8505 20.5639C39.2391 20.5409 39.6277 20.5121 40.0119 20.4545C40.8394 20.3279 41.6684 20.0631 42.4988 20.1667C43.168 20.2559 43.7782 20.5841 44.3697 20.9165C49.45 23.7949 54.2555 27.2316 59.1515 30.4151C59.3246 30.5135 59.4783 30.6428 59.6049 30.7965C60.0251 31.3721 59.507 32.2141 58.8666 32.5408C58.0261 32.9725 56.9956 32.9265 56.1163 32.5998C55.4629 32.358 54.8729 31.9737 54.29 31.5923L44.7267 25.3665C44.5367 25.4384 44.4863 25.7032 44.5727 25.8874C44.676 26.0639 44.8252 26.2092 45.0044 26.3077L54.906 32.9006C55.0997 33.0047 55.2577 33.1646 55.3593 33.3596C55.5032 33.7252 55.2154 34.121 54.8815 34.3297C53.7417 35.0493 52.2492 34.5081 51.059 33.8763C48.9112 32.7335 46.9157 31.325 45.1196 29.684C44.9454 29.5242 44.7526 29.3544 44.518 29.3386C44.2834 29.3228 44.0272 29.5617 44.1251 29.7703C44.1684 29.8465 44.2303 29.9104 44.305 29.956L51.1958 34.9931C51.3915 35.137 51.6002 35.2968 51.6736 35.5299C51.842 36.0725 51.1914 36.51 50.633 36.6136C49.6253 36.8 48.5843 36.6073 47.7101 36.0725C46.8264 35.5227 46.1371 34.6333 45.1383 34.334C45.5863 35.2115 46.2656 35.95 47.1027 36.4697C47.2931 36.5622 47.457 36.7013 47.5791 36.8741C47.8295 37.3203 47.3704 37.8585 46.8869 38.0255C45.5182 38.5105 44.0862 37.5275 43.0601 36.4999C42.5334 35.9732 41.9965 35.2795 42.1836 34.5585C42.3808 33.8015 43.2745 33.4431 43.6372 32.7494C44.1524 31.7679 43.3019 30.4899 42.2225 30.2424C41.8992 30.1717 41.5662 30.1576 41.2381 30.2007C40.9114 30.2395 40.5876 30.3244 40.2595 30.2985C39.6277 30.2482 39.1081 29.802 38.5684 29.4724C37.6869 28.9419 36.6653 28.691 35.6383 28.7529C35.0871 28.7874 34.5287 28.9097 33.9918 28.7903C33.6076 28.7039 33.2579 28.5024 32.8765 28.4046C31.8906 28.1599 30.7767 28.6679 29.87 28.2132C29.6225 28.088 29.3663 27.8908 29.1015 27.9685C28.8367 28.0462 28.7115 28.0966 28.4409 28.0405C28.261 28.0016 28.0912 28.0879 27.9142 28.0405C27.7874 28.0225 27.6583 28.0473 27.5472 28.111C26.8825 28.408 26.2546 28.7813 25.6763 29.2235C25.3726 29.4537 25.0876 29.8927 24.6919 29.9675C24.1738 30.0639 23.388 29.6797 22.8958 29.5358C22.199 29.3189 21.5144 29.0647 20.845 28.7744C19.5354 28.2128 18.3022 27.4874 17.1751 26.6157C16.4411 26.04 15.7618 25.3996 15.0609 24.785C14.7414 24.5058 12.8273 23.3531 13.8146 23.0062C14.006 22.94 16.0482 24.064 16.8368 23.8553C17.5089 23.6754 16.7447 23.2797 16.4943 23.1357C16.005 22.8666 13.2864 21.7196 13.1238 21.6088C12.9208 21.4649 11.3003 20.6891 10.8628 20.2113C10.6973 20.03 9.71148 18.8628 10.2972 18.7088C10.398 18.6964 10.4999 18.7198 10.5851 18.775C11.9696 19.4529 17.2672 21.1641 18.4444 21.544C19.1741 21.7772 19.9253 22.0161 20.6953 22.006Z" fill="white"/>
<path d="M59.8914 19.3219C60.1634 19.4572 60.2973 19.4457 60.588 19.3363L66.7563 16.92C67.8789 16.4796 69.0029 16.0392 70.111 15.5642C72.5448 14.5254 74.9056 13.3233 77.1774 11.9663C77.3041 11.89 77.4652 11.8109 77.5933 11.8742C77.7545 11.949 77.7718 12.162 77.756 12.3419C77.612 13.9826 76.5456 15.429 75.2288 16.4177C73.9119 17.4064 72.3504 18.0008 70.8134 18.5923C68.2775 19.5608 65.556 20.3567 63.1224 21.5541C63.6391 21.8132 64.2565 21.6289 64.8019 21.4418L72.1417 18.929C72.4454 18.8254 72.8613 18.7563 73.0196 19.0341C73.1635 19.2845 72.9664 19.5925 72.7663 19.8026C70.9357 21.7167 68.325 22.6335 65.818 23.4869C65.8351 23.5906 65.8873 23.6852 65.9659 23.7549C66.0445 23.8247 66.1448 23.8652 66.2497 23.8697C66.4617 23.8711 66.6709 23.8218 66.8599 23.7258L69.1856 22.7587C69.3314 22.6803 69.4974 22.6476 69.662 22.6651C70.3255 22.8091 69.4735 23.746 69.2691 23.9446C67.6581 25.516 65.8623 26.886 63.9211 28.0246C62.482 28.8694 60.7852 29.6077 59.1848 29.1299C58.5602 28.9443 58.0032 28.5874 57.4578 28.2333L45.6062 20.5942C44.8578 20.1121 44.0921 19.6213 43.2272 19.4126C42.0154 19.1248 40.7518 19.4126 39.5184 19.5954C38.2448 19.7882 36.9366 19.8731 35.6701 19.6342C34.4036 19.3953 33.1717 18.8096 32.3298 17.8338C32.2259 17.7252 32.1447 17.597 32.0909 17.4568C31.9599 17.0509 32.2722 16.612 32.6665 16.4393C33.0609 16.2666 33.5012 16.2838 33.9272 16.2781C36.5178 16.245 38.4247 15.1512 40.5359 13.8228C41.434 13.2572 42.5781 14.2546 43.338 14.6374C44.4539 15.194 45.6213 15.6408 46.8237 15.9715C49.1451 16.6005 51.6219 16.7401 53.9606 16.1154C55.4775 15.7125 56.8965 15.0116 58.2983 14.3064C66.5448 10.1587 74.6632 5.69725 82.1757 0.333432C82.4635 0.130508 82.9327 -0.0393141 83.0953 0.271548C83.1398 0.383035 83.1508 0.505066 83.127 0.622708C82.8191 3.28938 81.821 5.82965 80.2313 7.99274C78.3935 10.4926 76.0764 11.8382 73.2859 13.0874C69.6879 14.6935 66.1015 16.2953 62.492 17.8626C61.5753 18.2598 60.6441 18.6671 59.8914 19.3219Z" fill="white"/>
<path d="M37.2337 35.5846C37.2337 35.4062 37.2337 35.2277 37.2423 35.0507C37.2391 34.5658 37.2961 34.0823 37.4121 33.6115C37.6873 32.711 38.3084 31.9564 39.1392 31.5132C39.575 31.2927 40.0334 31.1199 40.5064 30.998C40.7446 30.9163 40.9943 30.873 41.2461 30.8699C41.4342 30.8801 41.6195 30.9189 41.7959 30.985C42.3068 31.1606 43.2351 31.5305 43.0091 32.2097C42.8465 32.6962 42.3701 33.0733 41.9902 33.3899C41.5325 33.7713 41.0504 34.2534 41.0921 34.8535C41.1194 35.0723 41.1873 35.2842 41.2922 35.4781C41.7138 36.3589 42.2996 37.1821 43.107 37.7362C43.4481 37.9693 43.8381 38.1679 44.0568 38.5162C44.0935 38.5656 44.1194 38.6221 44.133 38.682C44.1467 38.742 44.1477 38.8041 44.136 38.8645C44.0908 38.9725 44.0101 39.0619 43.9072 39.1178C43.3937 39.4373 42.8289 39.6656 42.2377 39.7928C41.3037 40.0245 40.2819 40.1324 39.4068 39.7338C39.021 39.5338 38.6544 39.2987 38.3116 39.0315C38.1335 38.9241 37.976 38.7857 37.8468 38.6227C37.7583 38.4762 37.6941 38.3163 37.6568 38.1492C37.4886 37.6017 37.362 37.0421 37.2783 36.4755C37.246 36.1797 37.2311 35.8822 37.2337 35.5846Z" fill="white"/>
<path d="M33.0541 35.3124C33.0541 35.216 33.0714 35.1196 33.0743 35.0246C33.093 34.5612 32.9462 34.1093 32.8886 33.6502C32.844 33.1392 32.8541 32.6249 32.9188 32.116C32.9879 31.3662 33.4945 30.9345 34.004 30.412C34.5135 29.8896 35.5871 29.383 36.3239 29.4507C36.4927 29.4737 36.6576 29.5187 36.8147 29.5845L38.4554 30.1933C38.5741 30.2246 38.6802 30.292 38.759 30.3861C38.8612 30.5401 38.795 30.7503 38.6943 30.9071C38.4467 31.2899 38.0265 31.5173 37.6739 31.8066C37.222 32.1899 36.8741 32.681 36.6623 33.2344C36.4505 33.7878 36.3816 34.3857 36.4621 34.9728C36.511 35.3168 36.606 35.6535 36.655 35.9975C36.7183 36.3422 36.6736 36.6981 36.5269 37.0164C36.347 37.3618 35.9512 37.6122 35.5554 37.4784C35.1956 37.3532 34.8358 37.2323 34.4703 37.1186C34.1047 37.0049 33.9104 36.7041 33.6874 36.4336C33.4643 36.163 33.0815 35.9514 33.0512 35.5398C33.047 35.4641 33.0479 35.3881 33.0541 35.3124Z" fill="white"/>
<path d="M29.544 30.8355C29.6419 30.3735 29.9398 30.0684 30.1341 29.6626C30.2449 29.4323 31.1343 29.1761 31.3818 29.0696C31.4887 29.0305 31.602 29.0119 31.7157 29.0149C32.1182 29.0053 32.5207 29.0304 32.9189 29.0898C33.1794 29.1092 33.4291 29.2026 33.6385 29.3589C33.8342 29.5287 33.9263 29.8439 33.7709 30.054C33.6154 30.2642 33.2844 30.2757 33.0513 30.4225C32.9229 30.5163 32.814 30.6341 32.7303 30.7693C32.5293 31.0352 32.3452 31.3135 32.1791 31.6026C32.0985 31.8789 32.1014 33.2893 32.1518 33.7167C32.182 33.9772 32.3259 34.2291 32.2784 34.4867C32.2065 34.8738 31.72 35.0624 31.3372 34.9645C30.9544 34.8666 30.645 34.599 30.3298 34.3658C30.0635 34.173 29.7685 33.9887 29.6231 33.6937C29.5109 33.4692 29.4792 31.1478 29.544 30.8355Z" fill="white"/>
<path d="M29.1052 28.6637L29.2217 28.6709C29.3863 28.6758 29.5475 28.7191 29.6923 28.7976C29.7639 28.8381 29.8223 28.8983 29.8608 28.9709C29.8993 29.0436 29.9163 29.1258 29.9097 29.2077C29.8615 29.3634 29.7633 29.499 29.6305 29.5934C29.2719 29.9327 29.0101 30.3614 28.872 30.8354C28.8318 30.9544 28.8143 31.0799 28.8202 31.2053C28.8395 31.3348 28.8733 31.4618 28.9209 31.5838C29.0332 31.9436 29.1901 32.8575 28.7008 33.0115C28.3424 33.1237 27.8833 32.833 27.5667 32.6948C27.0542 32.4964 26.6061 32.1608 26.2714 31.7248C26.0138 31.3593 25.8742 30.8613 26.0656 30.4612C26.1408 30.3397 26.2049 30.2115 26.257 30.0784C26.2829 29.9863 26.2829 29.8899 26.3088 29.7906C26.3914 29.5787 26.5485 29.4042 26.7507 29.2998C27.4515 28.851 28.2736 28.6289 29.1052 28.6637Z" fill="white"/>
<path d="M91.2168 7.9978C91.1711 7.34259 91.0355 6.6968 90.8136 6.07859C90.7512 5.84379 90.6232 5.63159 90.4448 5.46669C90.2663 5.3018 90.0447 5.191 89.8057 5.14722H96.9382L106.187 29.1493L115.437 5.1956V5.14722H122.666C122.174 5.21173 121.815 5.58669 121.585 6.27615C121.345 7.00727 121.209 7.76884 121.182 8.53808V31.0202C121.181 31.4663 121.14 31.9115 121.061 32.3507C120.987 32.7647 120.871 33.17 120.714 33.5603C120.588 33.8862 120.414 34.1918 120.198 34.4675C120.128 34.5739 120.034 34.6628 119.923 34.7271C119.813 34.7914 119.689 34.8295 119.561 34.8384H113.844C114.113 34.7739 114.343 34.536 114.534 34.1247C114.753 33.6446 114.918 33.1415 115.025 32.6249C115.159 32.0154 115.257 31.3989 115.32 30.7782C115.384 30.1412 115.421 29.5687 115.421 29.0808V8.39292L105.188 34.9069H103.958V34.8586H102.631L92.4466 8.4413V34.8586H91.2168V7.9978Z" fill="white"/>
<path d="M136.771 24.7747C136.287 22.928 135.299 21.2526 133.916 19.9364C132.491 18.679 130.695 17.9191 128.8 17.7712L124.127 34.8425H122.945L130.57 6.99789C130.638 6.79935 130.638 6.58358 130.57 6.38504C130.443 5.96841 130.184 5.60451 129.832 5.34883C129.7 5.25065 129.551 5.17691 129.392 5.1311H134.956C135.384 5.1311 135.835 5.3999 136.311 5.93749C136.817 6.53371 137.193 7.22844 137.416 7.97765L143.867 29.0808C144.026 29.6589 144.223 30.2259 144.456 30.7783C144.718 31.4193 144.996 32.0322 145.29 32.6249C145.551 33.1549 145.865 33.6573 146.226 34.1248C146.44 34.4492 146.75 34.6987 147.113 34.8384H141.492C141.202 34.8107 140.931 34.679 140.73 34.4675C140.432 34.1985 140.168 33.8938 139.944 33.5603C139.68 33.1731 139.442 32.769 139.23 32.3507C139.013 31.9233 138.832 31.4782 138.69 31.0202L136.771 24.7747ZM128.997 17.0011C130.804 17.208 132.539 17.8304 134.065 18.8195C135.611 19.8422 136.775 21.3478 137.376 23.1015C137.214 22.5102 136.983 21.9404 136.686 21.404C136.456 21.025 136.218 20.6581 135.973 20.2952C135.698 19.8864 135.451 19.4593 135.235 19.0171C134.916 18.3331 134.646 17.627 134.428 16.9044C134.295 16.4447 134.134 15.9125 133.936 15.2916C133.739 14.6707 133.533 14.0618 133.348 13.4208C133.162 12.7797 132.945 12.1346 132.755 11.4814C132.566 10.8282 132.38 10.2315 132.215 9.70736L131.969 8.96952C131.904 8.77195 131.836 8.56631 131.771 8.38084C131.707 8.19537 131.642 7.97765 131.574 7.78815L128.997 17.0011Z" fill="white"/>
<path d="M157.937 33.7741C158.645 33.7725 159.351 33.7159 160.05 33.6047C160.74 33.499 161.405 33.2739 162.018 32.9395C162.601 32.6214 163.105 32.1763 163.493 31.6372C163.91 31.0213 164.118 30.2876 164.086 29.5446C164.12 28.3611 163.685 27.2119 162.876 26.3473C161.992 25.4304 160.982 24.6432 159.877 24.0087C158.608 23.2706 157.303 22.5977 155.966 21.9928C154.592 21.3768 153.282 20.6273 152.055 19.7551C150.889 18.936 149.874 17.9211 149.055 16.7553C148.224 15.5067 147.805 14.0289 147.857 12.5298C147.808 11.2417 148.197 9.97496 148.962 8.93736C149.722 7.96953 150.686 7.18077 151.785 6.62706C152.945 6.02577 154.188 5.60174 155.474 5.36909C156.714 5.13411 157.973 5.01131 159.236 5.00218C160.815 4.97608 162.39 5.18397 163.909 5.61907C165.101 5.95743 166.237 6.47107 167.279 7.14315C168.087 7.6603 168.788 8.32834 169.344 9.11073C169.769 9.67318 170.018 10.3498 170.057 11.0541L166.086 14.1426C166.17 12.8116 166.003 11.4766 165.594 10.2074C165.39 9.70328 165.143 9.21765 164.856 8.75593C164.547 8.26595 164.145 7.84021 163.675 7.50199C163.141 7.12131 162.552 6.82361 161.929 6.619C161.147 6.37319 160.33 6.25608 159.51 6.27225C157.835 6.27225 156.483 6.70635 155.454 7.57456C154.943 8.0034 154.537 8.54374 154.268 9.15398C153.999 9.76422 153.874 10.4281 153.901 11.0944C153.88 12.2541 154.315 13.3758 155.111 14.2192C155.986 15.1425 156.988 15.9366 158.087 16.5779C159.346 17.3252 160.644 18.0075 161.973 18.6221C163.327 19.2433 164.627 19.9756 165.86 20.8114C166.991 21.5661 167.996 22.4956 168.836 23.5652C169.656 24.6446 170.083 25.9719 170.045 27.327C170.035 28.2865 169.799 29.23 169.356 30.0808C168.843 31.0632 168.1 31.907 167.191 32.5403C166.06 33.3346 164.805 33.9342 163.477 34.3144C159.769 35.2692 155.874 35.226 152.188 34.1894C150.883 33.77 149.657 33.1379 148.559 32.3186C147.79 31.7727 147.139 31.0758 146.648 30.2703C146.396 29.838 146.181 29.3847 146.007 28.9156L149.994 25.7183C150.188 27.1251 150.621 28.4886 151.273 29.7502C151.884 30.8295 152.707 31.7744 153.692 32.5282C154.74 33.3615 156.155 33.7768 157.937 33.7741Z" fill="white"/>
<path d="M178.532 6.42533C177.567 6.41363 176.614 6.63202 175.75 7.06239C174.36 7.7557 173.167 8.78892 172.283 10.0662C172.068 10.3554 171.887 10.6678 171.742 10.9976V6.17939C171.74 6.05529 171.774 5.93323 171.84 5.82802C171.906 5.72281 172.001 5.63898 172.113 5.5867C172.4 5.44499 172.705 5.34583 173.02 5.29236C173.395 5.22645 173.773 5.18605 174.153 5.17141C174.557 5.17141 174.875 5.14722 175.137 5.14722H194.914C195.476 5.17972 196.035 5.26201 196.583 5.39316C197.143 5.52218 197.422 5.79636 197.422 6.17939V10.9976C197.275 10.6687 197.094 10.3565 196.881 10.0662C196.487 9.50142 196.033 8.98096 195.527 8.51389C194.9 7.93643 194.198 7.448 193.438 7.06239C192.563 6.62481 191.594 6.4062 190.616 6.42533H187.418V31.0202C187.417 31.4665 187.376 31.9119 187.293 32.3507C187.223 32.7649 187.108 33.1704 186.951 33.5603C186.824 33.8862 186.65 34.1918 186.435 34.4675C186.364 34.5745 186.269 34.6636 186.158 34.7279C186.046 34.7923 185.922 34.8301 185.794 34.8384H180.149C180.418 34.7739 180.639 34.536 180.814 34.1247C181.017 33.6407 181.174 33.1385 181.282 32.6249C181.415 32.0154 181.513 31.3989 181.576 30.7782C181.641 30.1412 181.677 29.5687 181.677 29.0808V6.42533H178.532Z" fill="white"/>
<path d="M200.717 8.93331C200.717 8.50624 200.693 8.07952 200.644 7.65519C200.6 7.25451 200.518 6.85896 200.398 6.47384C200.299 6.14439 200.14 5.83568 199.931 5.56262C199.848 5.45314 199.745 5.36113 199.626 5.29192C199.508 5.22271 199.377 5.17768 199.241 5.15942H215.623C215.885 5.15942 216.212 5.15942 216.607 5.18361C216.985 5.19825 217.363 5.23866 217.736 5.30457C218.052 5.35743 218.359 5.45661 218.647 5.5989C218.759 5.65118 218.854 5.73502 218.92 5.84023C218.986 5.94544 219.02 6.0675 219.018 6.1916V10.9977C218.871 10.6682 218.689 10.3558 218.474 10.0663C218.078 9.49689 217.616 8.9759 217.099 8.514C216.459 7.94103 215.747 7.45316 214.982 7.0625C214.107 6.6237 213.138 6.40502 212.16 6.42545H206.176C206.385 6.90576 206.487 7.42586 206.475 7.94953V19.4607H211.966C212.939 19.5024 213.907 19.3088 214.788 18.8962C215.51 18.5172 215.937 18.1987 216.071 17.9366V19.5494C216.069 19.6638 216.039 19.776 215.983 19.8754C215.926 19.9749 215.846 20.0583 215.748 20.1179C215.512 20.2751 215.256 20.3986 214.986 20.4848C214.675 20.5885 214.353 20.6548 214.026 20.6824C213.685 20.7146 213.383 20.7308 213.119 20.7308H206.475V31.0122C206.458 31.372 206.521 31.731 206.661 32.063C206.8 32.395 207.012 32.6917 207.281 32.9314C207.764 33.3752 208.395 33.6213 209.051 33.6209H212.2C213.179 33.642 214.148 33.4219 215.022 32.9798C215.787 32.5891 216.499 32.1013 217.139 31.5283C217.662 31.0645 218.124 30.5361 218.514 29.9558C218.728 29.6558 218.911 29.3342 219.058 28.9962V33.8346C219.061 33.9583 219.028 34.0801 218.962 34.1849C218.896 34.2896 218.8 34.3725 218.687 34.4232C218.401 34.5691 218.093 34.6685 217.776 34.7176C217.403 34.7868 217.026 34.8286 216.647 34.8425C216.244 34.8425 215.925 34.8667 215.663 34.8667H204.261C203.772 34.8861 203.286 34.7941 202.838 34.5979C202.391 34.4016 201.993 34.1061 201.676 33.7338C201.036 32.9802 200.694 32.0173 200.717 31.0283V8.93331Z" fill="white"/>
<path d="M228.754 31.0204C228.752 31.4666 228.712 31.9117 228.633 32.3509C228.559 32.7649 228.443 33.1702 228.286 33.5605C228.159 33.8864 227.985 34.192 227.77 34.4677C227.699 34.5742 227.605 34.663 227.495 34.7273C227.384 34.7916 227.26 34.8297 227.133 34.8386H221.488C221.75 34.7741 221.972 34.5362 222.15 34.125C222.354 33.6416 222.511 33.1392 222.617 32.6251C222.752 32.016 222.851 31.3994 222.912 30.7785C222.975 30.2148 223.009 29.6482 223.012 29.081V25.4523H223.061V8.2359C223.008 7.53858 222.859 6.85195 222.617 6.19574C222.387 5.59095 222.045 5.25227 221.585 5.18776V5.13938H234.177C235.814 5.08227 237.437 5.46366 238.878 6.24413C240.067 6.91418 241.071 7.86866 241.801 9.02212C242.482 10.134 242.896 11.3885 243.011 12.6872C243.148 13.9675 242.998 15.2623 242.571 16.4772C242.142 17.6765 241.433 18.756 240.503 19.6261C239.493 20.5546 238.23 21.1622 236.874 21.372C237.724 21.6547 238.47 22.1856 239.015 22.896C239.649 23.6909 240.201 24.5472 240.664 25.4523C241.17 26.4357 241.621 27.4466 242.015 28.4803C242.418 29.5447 242.821 30.5365 243.196 31.4558C243.514 32.2539 243.893 33.0263 244.329 33.7661C244.453 34.0231 244.628 34.2519 244.844 34.4385C245.059 34.625 245.311 34.7653 245.583 34.8507H239.938C239.378 34.8507 238.914 34.5241 238.535 33.8669C238.1 33.0792 237.73 32.2565 237.431 31.4074C237.068 30.4237 236.673 29.3471 236.249 28.1819C235.835 27.0491 235.294 25.967 234.636 24.9563C234.016 23.9924 233.215 23.1573 232.278 22.4969C231.235 21.8111 230.005 21.4672 228.758 21.5131L228.754 31.0204ZM228.754 20.247H229.641C229.92 20.2462 230.199 20.2623 230.475 20.2954H231.951C233.043 20.3351 234.111 19.9672 234.947 19.2633C235.76 18.5632 236.393 17.6783 236.794 16.6828C237.226 15.6206 237.444 14.4832 237.435 13.3363C237.444 12.1939 237.243 11.0594 236.842 9.9898C236.472 8.99135 235.855 8.10333 235.048 7.40935C234.183 6.70007 233.089 6.33278 231.971 6.37717H228.774V7.6553L228.822 7.90125V9.70756H228.774L228.754 20.247Z" fill="white"/>
<path d="M254.188 31.0202C254.186 31.4665 254.145 31.9119 254.063 32.3507C253.992 32.7649 253.877 33.1704 253.72 33.5603C253.591 33.8854 253.418 34.1908 253.204 34.4675C253.133 34.5745 253.038 34.6636 252.927 34.7279C252.815 34.7923 252.691 34.8301 252.563 34.8384H246.918C247.187 34.7739 247.409 34.536 247.583 34.1247C247.786 33.6407 247.943 33.1385 248.051 32.6249C248.184 32.0154 248.282 31.3989 248.345 30.7782C248.41 30.1412 248.442 29.5687 248.442 29.0808V7.94942C248.414 7.2446 248.584 6.54603 248.934 5.93345C249.037 5.71448 249.196 5.52653 249.395 5.38852C249.594 5.25051 249.826 5.16729 250.067 5.14722H255.675C255.539 5.16547 255.409 5.2105 255.29 5.27971C255.172 5.34892 255.068 5.44093 254.986 5.55041C254.776 5.82347 254.618 6.13218 254.518 6.46163C254.399 6.84675 254.317 7.24231 254.272 7.64299C254.224 8.06732 254.2 8.49403 254.2 8.9211L254.188 31.0202Z" fill="white"/>
<path d="M258.957 8.98182C258.957 8.55475 258.933 8.12803 258.885 7.70369C258.84 7.30301 258.758 6.90745 258.639 6.52234C258.539 6.19403 258.381 5.88661 258.171 5.61515C258.089 5.50535 257.985 5.4131 257.867 5.34386C257.749 5.27462 257.617 5.22977 257.481 5.21196H263.09C263.331 5.23203 263.563 5.31525 263.762 5.45326C263.961 5.59127 264.12 5.77921 264.223 5.99818C264.573 6.61076 264.743 7.30933 264.715 8.01414V27.7424C264.674 28.7487 264.894 29.7485 265.352 30.6454C265.745 31.359 266.297 31.9728 266.965 32.4396C267.575 32.8698 268.258 33.1867 268.981 33.375C270.184 33.7342 271.466 33.7342 272.67 33.375C273.386 33.1896 274.061 32.8724 274.662 32.4396C275.405 31.9116 276.002 31.2038 276.398 30.3824C276.793 29.561 276.974 28.6527 276.923 27.7424V5.16357H282.633V26.6417C282.633 28.4104 282.239 29.8296 281.451 30.8994C280.68 31.9508 279.668 32.8024 278.5 33.3831C277.292 33.9807 275.996 34.3797 274.662 34.5645C272.123 34.9556 269.539 34.9556 267.001 34.5645C265.659 34.3774 264.355 33.9786 263.138 33.3831C261.96 32.8075 260.94 31.9554 260.163 30.8994C259.375 29.8242 258.981 28.405 258.981 26.6417L258.957 8.98182Z" fill="white"/>
<path d="M285.965 7.9978C285.919 7.34259 285.784 6.6968 285.562 6.07859C285.499 5.84379 285.371 5.63159 285.193 5.46669C285.014 5.3018 284.793 5.191 284.554 5.14722H291.686L300.935 29.1493L310.185 5.1956V5.14722H317.414C316.922 5.21173 316.563 5.58669 316.333 6.27615C316.093 7.00727 315.957 7.76884 315.93 8.53808V31.0202C315.929 31.4663 315.888 31.9115 315.809 32.3507C315.735 32.7647 315.619 33.17 315.463 33.5603C315.336 33.8862 315.162 34.1918 314.946 34.4675C314.876 34.5744 314.782 34.6635 314.672 34.7279C314.561 34.7923 314.437 34.8301 314.309 34.8384H308.592C308.861 34.7739 309.091 34.536 309.282 34.1247C309.502 33.6453 309.668 33.142 309.773 32.6249C309.909 32.0158 310.007 31.3992 310.068 30.7782C310.131 30.2146 310.165 29.648 310.169 29.0808V8.39292L299.936 34.9069H298.726V34.8586H297.399L287.215 8.4413V34.8586H285.985L285.965 7.9978Z" fill="white"/>
</svg>
