<svg width="21" height="20" viewBox="0 0 21 20" fill="none" xmlns="http://www.w3.org/2000/svg">
<path d="M14.8906 8.33334H16.5573C18.224 8.33334 19.0573 7.5 19.0573 5.83334V4.16667C19.0573 2.50001 18.224 1.66667 16.5573 1.66667H14.8906C13.224 1.66667 12.3906 2.50001 12.3906 4.16667V5.83334C12.3906 7.5 13.224 8.33334 14.8906 8.33334Z" stroke="#fff" stroke-width="1.5" stroke-miterlimit="10" stroke-linecap="round" stroke-linejoin="round"/>
<path d="M4.89062 18.3333H6.55729C8.22396 18.3333 9.05729 17.5 9.05729 15.8333V14.1667C9.05729 12.5 8.22396 11.6667 6.55729 11.6667H4.89062C3.22396 11.6667 2.39062 12.5 2.39062 14.1667V15.8333C2.39062 17.5 3.22396 18.3333 4.89062 18.3333Z" stroke="#fff" stroke-width="1.5" stroke-miterlimit="10" stroke-linecap="round" stroke-linejoin="round"/>
<path d="M5.72396 8.33334C7.56491 8.33334 9.05729 6.84095 9.05729 5.00001C9.05729 3.15906 7.56491 1.66667 5.72396 1.66667C3.88301 1.66667 2.39062 3.15906 2.39062 5.00001C2.39062 6.84095 3.88301 8.33334 5.72396 8.33334Z" stroke="#fff" stroke-width="1.5" stroke-miterlimit="10" stroke-linecap="round" stroke-linejoin="round"/>
<path d="M15.724 18.3333C17.5649 18.3333 19.0573 16.841 19.0573 15C19.0573 13.1591 17.5649 11.6667 15.724 11.6667C13.883 11.6667 12.3906 13.1591 12.3906 15C12.3906 16.841 13.883 18.3333 15.724 18.3333Z" stroke="#fff" stroke-width="1.5" stroke-miterlimit="10" stroke-linecap="round" stroke-linejoin="round"/>
</svg>
