<svg width="25" height="24" viewBox="0 0 25 24" fill="none" xmlns="http://www.w3.org/2000/svg">
<path d="M9.8125 22H15.8125C20.8125 22 22.8125 20 22.8125 15V9C22.8125 4 20.8125 2 15.8125 2H9.8125C4.8125 2 2.8125 4 2.8125 9V15C2.8125 20 4.8125 22 9.8125 22Z" stroke="#001D55" stroke-width="1.8" stroke-linecap="round" stroke-linejoin="round"/>
<path d="M9.8125 10C10.9171 10 11.8125 9.10457 11.8125 8C11.8125 6.89543 10.9171 6 9.8125 6C8.70793 6 7.8125 6.89543 7.8125 8C7.8125 9.10457 8.70793 10 9.8125 10Z" stroke="#001D55" stroke-width="1.8" stroke-linecap="round" stroke-linejoin="round"/>
<path d="M3.48248 18.9501L8.41248 15.6401C9.20248 15.1101 10.3425 15.1701 11.0525 15.7801L11.3825 16.0701C12.1625 16.7401 13.4225 16.7401 14.2025 16.0701L18.3625 12.5001C19.1425 11.8301 20.4025 11.8301 21.1825 12.5001L22.8125 13.9001" stroke="#001D55" stroke-width="1.8" stroke-linecap="round" stroke-linejoin="round"/>
</svg>
