<svg width="24" height="24" viewBox="0 0 24 24" fill="none" xmlns="http://www.w3.org/2000/svg">
<path d="M8.99951 22.0002H14.9995C19.9995 22.0002 21.9995 20.0002 21.9995 15.0002V9.00024C21.9995 4.00024 19.9995 2.00024 14.9995 2.00024H8.99951C3.99951 2.00024 1.99951 4.00024 1.99951 9.00024V15.0002C1.99951 20.0002 3.99951 22.0002 8.99951 22.0002Z" stroke="white" stroke-width="1.8" stroke-linecap="round" stroke-linejoin="round"/>
<path d="M9.00049 10C10.1051 10 11.0005 9.10457 11.0005 8C11.0005 6.89543 10.1051 6 9.00049 6C7.89592 6 7.00049 6.89543 7.00049 8C7.00049 9.10457 7.89592 10 9.00049 10Z" stroke="white" stroke-width="1.8" stroke-linecap="round" stroke-linejoin="round"/>
<path d="M2.67041 18.9503L7.60041 15.6403C8.39041 15.1103 9.53041 15.1703 10.2404 15.7803L10.5704 16.0703C11.3504 16.7403 12.6104 16.7403 13.3904 16.0703L17.5504 12.5003C18.3304 11.8303 19.5904 11.8303 20.3704 12.5003L22.0004 13.9003" stroke="white" stroke-width="1.8" stroke-linecap="round" stroke-linejoin="round"/>
</svg>
