<svg width="34" height="32" viewBox="0 0 34 32" fill="none" xmlns="http://www.w3.org/2000/svg">
<path d="M30.4201 11.9998V19.9998C30.4201 20.3065 30.4201 20.5998 30.3932 20.8931C30.3395 20.8131 30.2725 20.7332 30.2054 20.6665C30.1919 20.6532 30.1785 20.6265 30.1651 20.6132C29.0781 19.4132 27.4812 18.6665 25.7232 18.6665C24.0324 18.6665 22.4891 19.3598 21.3887 20.4798C20.3286 21.5598 19.6845 23.0398 19.6845 24.6665C19.6845 25.7865 20.0065 26.8532 20.5567 27.7598C20.852 28.2532 21.2277 28.7065 21.6571 29.0798C21.684 29.0932 21.6974 29.1065 21.7108 29.1199C21.7779 29.1865 21.845 29.2398 21.9255 29.3065C21.6437 29.3331 21.3351 29.3332 21.0264 29.3332H12.9747C6.26496 29.3332 3.58105 26.6665 3.58105 19.9998V11.9998C3.58105 5.33317 6.26496 2.6665 12.9747 2.6665H21.0264C27.7362 2.6665 30.4201 5.33317 30.4201 11.9998Z" stroke="#677294" stroke-width="2" stroke-linecap="round" stroke-linejoin="round"/>
<path d="M4.27832 9.47949H29.7217" stroke="#677294" stroke-width="2" stroke-linecap="round" stroke-linejoin="round"/>
<path d="M12.3301 2.81348V9.29346" stroke="#677294" stroke-width="2" stroke-linecap="round" stroke-linejoin="round"/>
<path d="M21.6699 2.81348V8.69352" stroke="#677294" stroke-width="2" stroke-linecap="round" stroke-linejoin="round"/>
<path d="M31.7612 24.6665C31.7612 25.1465 31.7075 25.6132 31.5867 26.0665C31.4391 26.6665 31.1975 27.2398 30.8889 27.7598C29.8422 29.4932 27.9232 30.6665 25.7224 30.6665C24.2731 30.6665 22.9579 30.1598 21.9381 29.3065C21.9246 29.3065 21.9246 29.3065 21.9246 29.3065C21.8441 29.2398 21.777 29.1865 21.7099 29.1199C21.6965 29.1065 21.6831 29.0932 21.6563 29.0798C21.2268 28.7065 20.8511 28.2532 20.5559 27.7598C20.0057 26.8532 19.6836 25.7865 19.6836 24.6665C19.6836 23.0398 20.3277 21.5598 21.3879 20.4798C22.4883 19.3598 24.0315 18.6665 25.7224 18.6665C27.4803 18.6665 29.0772 19.4132 30.1642 20.6132C30.1776 20.6265 30.1911 20.6532 30.2045 20.6665C30.2716 20.7332 30.3387 20.8131 30.3924 20.8931C31.2512 21.9198 31.7612 23.2398 31.7612 24.6665Z" stroke="#677294" stroke-width="2" stroke-miterlimit="10" stroke-linecap="round" stroke-linejoin="round"/>
<path d="M27.9777 24.6401H23.4688" stroke="#677294" stroke-width="2" stroke-miterlimit="10" stroke-linecap="round" stroke-linejoin="round"/>
<path d="M25.7227 22.4536V26.9336" stroke="#677294" stroke-width="2" stroke-miterlimit="10" stroke-linecap="round" stroke-linejoin="round"/>
</svg>
