<svg width="191" height="24" viewBox="0 0 191 24" fill="none" xmlns="http://www.w3.org/2000/svg">
<path d="M12.4172 13.2036H12.4491C12.2704 12.9195 11.931 12.79 11.6141 12.6777L8.99941 11.7529C8.43381 11.5534 7.86822 11.3531 7.31039 11.1303C6.98571 11.0008 6.10666 10.6122 5.99009 10.5518C5.448 10.2798 4.94568 9.93493 4.49709 9.52678C4.04029 9.11143 3.83823 8.66327 3.51183 8.05018C3.40752 7.83053 3.31443 7.60573 3.23291 7.37665C3.13965 7.05801 3.62408 7.14782 3.75706 7.24712C4.21707 7.57643 4.70577 7.8637 5.21725 8.10545C8.1264 9.56823 11.1754 10.7366 14.2159 11.8962C14.3264 11.9386 14.4904 11.9584 14.5284 11.8462C14.5664 11.7339 14.4421 11.657 14.3437 11.613C13.1606 11.0886 11.9805 10.5584 10.8033 10.0224L6.01945 7.84122C5.01347 7.38269 3.99625 6.91726 3.12843 6.2325C2.19153 5.49248 1.46704 4.5124 0.954983 3.4382C0.701422 2.90165 0.495127 2.34402 0.338441 1.77163C0.223594 1.35542 0.0888873 0.93921 0.0362134 0.509184C0.0137623 0.331302 -0.0691347 0.0497972 0.130335 0.00316789C0.271087 -0.0305089 0.511141 0.213863 0.613035 0.283807C1.45409 0.859478 2.30321 1.42364 3.16038 1.97628C4.87473 3.08157 6.61872 4.13793 8.39236 5.14535C10.379 6.27367 12.4002 7.34038 14.4559 8.3455C15.2739 8.74848 16.0969 9.13935 16.9247 9.51814C17.6284 9.83796 18.2454 10.3214 18.7242 10.9283C19.2398 11.5588 19.9264 12.0271 20.7016 12.277C20.8293 12.3194 20.9605 12.3501 21.0937 12.3686C21.1943 12.3798 21.2955 12.385 21.3968 12.3841C22.0352 12.3922 22.673 12.3769 23.3103 12.3384C23.5434 12.3245 23.7766 12.3073 24.0072 12.2727C24.5037 12.1967 25.001 12.0379 25.4993 12.1C25.9008 12.1536 26.2669 12.3504 26.6218 12.5499C29.67 14.2769 32.5533 16.339 35.4909 18.2491C35.5948 18.3081 35.687 18.3857 35.7629 18.4779C36.0151 18.8233 35.7042 19.3284 35.32 19.5245C34.8157 19.7835 34.1974 19.7559 33.6698 19.5599C33.2778 19.4148 32.9237 19.1842 32.574 18.9554L26.836 15.2199C26.722 15.2631 26.6918 15.4219 26.7436 15.5325C26.8056 15.6384 26.8951 15.7255 27.0027 15.7846L32.9436 19.7403C33.0598 19.8028 33.1546 19.8988 33.2156 20.0158C33.3019 20.2351 33.1292 20.4726 32.9289 20.5978C32.245 21.0296 31.3495 20.7049 30.6354 20.3258C29.3467 19.6401 28.1494 18.795 27.0717 17.8104C26.9673 17.7145 26.8515 17.6127 26.7108 17.6032C26.57 17.5937 26.4163 17.737 26.4751 17.8622C26.501 17.9079 26.5382 17.9462 26.583 17.9736L30.7175 20.9959C30.8349 21.0822 30.9601 21.1781 31.0041 21.318C31.1052 21.6435 30.7149 21.906 30.3798 21.9682C29.7752 22.08 29.1506 21.9644 28.626 21.6435C28.0959 21.3136 27.6822 20.78 27.083 20.6004C27.3518 21.1269 27.7594 21.57 28.2617 21.8818C28.3759 21.9373 28.4742 22.0208 28.5475 22.1245C28.6977 22.3922 28.4223 22.7151 28.1321 22.8153C27.3109 23.1063 26.4517 22.5165 25.8361 21.9C25.52 21.5839 25.1979 21.1677 25.3102 20.7351C25.4285 20.2809 25.9647 20.0659 26.1823 19.6497C26.4915 19.0608 25.9811 18.294 25.3335 18.1454C25.1395 18.103 24.9397 18.0946 24.7429 18.1204C24.5468 18.1437 24.3526 18.1947 24.1557 18.1791C23.7766 18.1489 23.4649 17.8812 23.1411 17.6835C22.6121 17.3651 21.9992 17.2146 21.383 17.2517C21.0522 17.2724 20.7172 17.3458 20.3951 17.2742C20.1645 17.2223 19.9547 17.1015 19.7259 17.0427C19.1344 16.8959 18.466 17.2008 17.922 16.9279C17.7735 16.8528 17.6198 16.7345 17.4609 16.7811C17.302 16.8277 17.2269 16.858 17.0646 16.8243C16.9566 16.801 16.8547 16.8528 16.7485 16.8243C16.6725 16.8135 16.595 16.8284 16.5283 16.8666C16.1295 17.0448 15.7528 17.2688 15.4058 17.5341C15.2236 17.6722 15.0526 17.9356 14.8151 17.9805C14.5043 18.0384 14.0328 17.8078 13.7375 17.7215C13.3194 17.5913 12.9087 17.4388 12.507 17.2647C11.7212 16.9277 10.9813 16.4924 10.305 15.9694C9.86464 15.624 9.45707 15.2397 9.03654 14.871C8.84484 14.7035 7.69638 14.0118 8.28874 13.8037C8.40359 13.764 9.62891 14.4384 10.1021 14.3132C10.5054 14.2053 10.0468 13.9678 9.89659 13.8814C9.603 13.72 7.97184 13.0318 7.87426 12.9653C7.75251 12.8789 6.7802 12.4135 6.51769 12.1268C6.41839 12.018 5.82689 11.3177 6.17834 11.2253C6.23878 11.2178 6.29993 11.2319 6.35104 11.265C7.18173 11.6717 10.3603 12.6984 11.0666 12.9264C11.5044 13.0663 11.9552 13.2096 12.4172 13.2036Z" fill="#01295F"/>
<path d="M35.9349 11.5931C36.0981 11.6743 36.1784 11.6674 36.3528 11.6018L40.0538 10.152C40.7273 9.88772 41.4017 9.62349 42.0666 9.33853C43.5269 8.7152 44.9434 7.99397 46.3064 7.17976C46.3824 7.134 46.4791 7.0865 46.556 7.1245C46.6527 7.1694 46.6631 7.2972 46.6536 7.40514C46.5672 8.38954 45.9274 9.25736 45.1373 9.85059C44.3471 10.4438 43.4102 10.8004 42.488 11.1553C40.9665 11.7365 39.3336 12.214 37.8734 12.9324C38.1834 13.0879 38.5539 12.9773 38.8811 12.8651L43.285 11.3574C43.4672 11.2952 43.7168 11.2538 43.8118 11.4204C43.8981 11.5707 43.7798 11.7555 43.6598 11.8816C42.5614 13.03 40.995 13.5801 39.4908 14.0921C39.501 14.1543 39.5324 14.2111 39.5795 14.2529C39.6267 14.2948 39.6869 14.3191 39.7498 14.3218C39.877 14.3227 40.0026 14.2931 40.116 14.2355L41.5114 13.6552C41.5988 13.6081 41.6985 13.5886 41.7972 13.5991C42.1953 13.6854 41.6841 14.2476 41.5615 14.3667C40.5949 15.3096 39.5174 16.1316 38.3527 16.8148C37.4892 17.3216 36.4711 17.7646 35.5109 17.4779C35.1361 17.3666 34.8019 17.1524 34.4747 16.94L27.3637 12.3565C26.9147 12.0672 26.4553 11.7728 25.9363 11.6475C25.2092 11.4748 24.4511 11.6475 23.7111 11.7572C22.9469 11.8729 22.1619 11.9239 21.4021 11.7805C20.6422 11.6372 19.903 11.2857 19.3979 10.7003C19.3356 10.6351 19.2868 10.5582 19.2545 10.474C19.1759 10.2305 19.3633 9.96716 19.5999 9.86354C19.8365 9.75992 20.1007 9.77028 20.3563 9.76683C21.9107 9.74697 23.0548 9.0907 24.3216 8.29368C24.8604 7.95433 25.5469 8.55274 26.0028 8.78243C26.6724 9.1164 27.3728 9.38448 28.0942 9.5829C29.4871 9.96025 30.9732 10.044 32.3764 9.66925C33.2865 9.42747 34.1379 9.00695 34.979 8.58383C39.9269 6.0952 44.7979 3.41833 49.3054 0.200041C49.4781 0.0782864 49.7596 -0.0236068 49.8572 0.162911C49.8839 0.229803 49.8905 0.303021 49.8762 0.373606C49.6914 1.97361 49.0926 3.49777 48.1388 4.79562C47.0361 6.29554 45.6459 7.10291 43.9715 7.85243C41.8128 8.81611 39.6609 9.77719 37.4952 10.7175C36.9452 10.9559 36.3865 11.2002 35.9349 11.5931Z" fill="#01295F"/>
<path d="M22.34 21.3508C22.34 21.2437 22.34 21.1366 22.3452 21.0304C22.3432 20.7395 22.3775 20.4494 22.4471 20.1669C22.6122 19.6266 22.9848 19.1738 23.4833 18.9079C23.7448 18.7756 24.0198 18.672 24.3036 18.5988C24.4466 18.5497 24.5964 18.5238 24.7475 18.5219C24.8603 18.5281 24.9715 18.5514 25.0773 18.591C25.3839 18.6963 25.9408 18.9183 25.8053 19.3258C25.7077 19.6177 25.4219 19.8439 25.1939 20.0339C24.9193 20.2627 24.63 20.552 24.6551 20.9121C24.6715 21.0434 24.7122 21.1705 24.7751 21.2869C25.0281 21.8153 25.3796 22.3093 25.864 22.6417C26.0686 22.7816 26.3026 22.9008 26.4339 23.1097C26.4559 23.1394 26.4714 23.1732 26.4796 23.2092C26.4878 23.2452 26.4884 23.2825 26.4814 23.3187C26.4543 23.3835 26.4058 23.4371 26.3441 23.4707C26.036 23.6623 25.6971 23.7994 25.3424 23.8757C24.782 24.0147 24.1689 24.0794 23.6439 23.8403C23.4124 23.7203 23.1924 23.5792 22.9868 23.4189C22.8799 23.3545 22.7854 23.2714 22.7079 23.1736C22.6548 23.0857 22.6163 22.9898 22.5939 22.8895C22.4929 22.561 22.417 22.2253 22.3668 21.8853C22.3474 21.7078 22.3385 21.5293 22.34 21.3508Z" fill="#01295F"/>
<path d="M19.8325 21.1876C19.8325 21.1297 19.8428 21.0718 19.8446 21.0149C19.8558 20.7368 19.7677 20.4657 19.7332 20.1902C19.7064 19.8836 19.7125 19.575 19.7513 19.2697C19.7928 18.8198 20.0967 18.5608 20.4024 18.2473C20.7081 17.9339 21.3522 17.6299 21.7944 17.6705C21.8956 17.6843 21.9946 17.7113 22.0888 17.7508L23.0732 18.1161C23.1445 18.1348 23.2081 18.1753 23.2554 18.2318C23.3167 18.3242 23.277 18.4502 23.2166 18.5444C23.068 18.7741 22.8159 18.9105 22.6043 19.0841C22.3332 19.3141 22.1245 19.6087 21.9974 19.9408C21.8703 20.2728 21.829 20.6315 21.8773 20.9838C21.9066 21.1901 21.9636 21.3922 21.993 21.5986C22.031 21.8054 22.0042 22.019 21.9161 22.21C21.8082 22.4172 21.5707 22.5674 21.3333 22.4871C21.1174 22.412 20.9015 22.3395 20.6822 22.2713C20.4628 22.203 20.3463 22.0226 20.2124 21.8602C20.0786 21.6979 19.8489 21.571 19.8307 21.324C19.8282 21.2785 19.8288 21.2329 19.8325 21.1876Z" fill="#01295F"/>
<path d="M17.726 18.5012C17.7847 18.224 17.9635 18.0409 18.08 17.7974C18.1465 17.6593 18.6802 17.5056 18.8287 17.4417C18.8928 17.4182 18.9608 17.407 19.029 17.4089C19.2705 17.4031 19.512 17.4181 19.7509 17.4538C19.9073 17.4654 20.0571 17.5214 20.1827 17.6152C20.3001 17.7171 20.3554 17.9062 20.2621 18.0323C20.1689 18.1584 19.9703 18.1653 19.8304 18.2534C19.7534 18.3097 19.688 18.3803 19.6378 18.4615C19.5172 18.621 19.4067 18.788 19.3071 18.9614C19.2587 19.1272 19.2605 19.9735 19.2907 20.2299C19.3088 20.3862 19.3952 20.5373 19.3667 20.6919C19.3235 20.9242 19.0316 21.0373 18.8019 20.9786C18.5722 20.9199 18.3866 20.7593 18.1975 20.6194C18.0377 20.5037 17.8607 20.3931 17.7735 20.2161C17.7061 20.0814 17.6871 18.6886 17.726 18.5012Z" fill="#01295F"/>
<path d="M17.4631 17.1982L17.533 17.2025C17.6318 17.2054 17.7285 17.2314 17.8154 17.2785C17.8583 17.3028 17.8934 17.3389 17.9165 17.3825C17.9396 17.4261 17.9498 17.4754 17.9458 17.5246C17.9169 17.618 17.858 17.6993 17.7783 17.756C17.5631 17.9596 17.406 18.2168 17.3232 18.5012C17.2991 18.5726 17.2886 18.6479 17.2921 18.7231C17.3037 18.8008 17.324 18.877 17.3526 18.9502C17.4199 19.1661 17.514 19.7144 17.2205 19.8068C17.0054 19.8742 16.73 19.6997 16.54 19.6168C16.2325 19.4978 15.9637 19.2964 15.7629 19.0348C15.6083 18.8155 15.5245 18.5167 15.6394 18.2767C15.6845 18.2037 15.7229 18.1269 15.7542 18.047C15.7698 17.9917 15.7698 17.9339 15.7853 17.8743C15.8349 17.7471 15.9291 17.6424 16.0504 17.5798C16.4709 17.3105 16.9642 17.1773 17.4631 17.1982Z" fill="#01295F"/>
<path d="M54.7305 4.79874C54.7031 4.40562 54.6217 4.01814 54.4886 3.64722C54.4511 3.50634 54.3743 3.37902 54.2673 3.28008C54.1602 3.18114 54.0272 3.11466 53.8838 3.08839H58.1633L63.7128 17.4897L69.2624 3.11742V3.08839H73.6C73.3048 3.1271 73.0895 3.35208 72.9516 3.76576C72.8072 4.20443 72.7258 4.66137 72.7097 5.12291V18.6122C72.7087 18.8799 72.6844 19.147 72.6371 19.4105C72.5927 19.6589 72.523 19.902 72.4291 20.1362C72.3529 20.3318 72.2486 20.5151 72.1194 20.6805C72.077 20.7444 72.0205 20.7977 71.9542 20.8363C71.888 20.8749 71.8137 20.8977 71.7372 20.9031H68.3068C68.4681 20.8644 68.606 20.7217 68.7205 20.4749C68.852 20.1868 68.951 19.885 69.0157 19.575C69.0956 19.2093 69.1546 18.8394 69.1922 18.467C69.231 18.0848 69.2527 17.7413 69.2527 17.4485V5.03582L63.1129 20.9442H62.3751V20.9152H61.5791L55.4683 5.06485V20.9152H54.7305V4.79874Z" fill="#01295F"/>
<path d="M82.0629 14.8649C81.7728 13.7569 81.1797 12.7516 80.3501 11.9619C79.4948 11.2074 78.4173 10.7515 77.2802 10.6628L74.4764 20.9055H73.7676L78.3422 4.19881C78.3833 4.07968 78.3833 3.95022 78.3422 3.8311C78.2664 3.58112 78.1109 3.36278 77.8995 3.20937C77.8201 3.15046 77.7308 3.10622 77.6358 3.07874H80.9743C81.2307 3.07874 81.5016 3.24001 81.7871 3.56257C82.0904 3.9203 82.3161 4.33714 82.45 4.78666L86.3206 17.4486C86.416 17.7954 86.5339 18.1356 86.6738 18.467C86.8311 18.8517 86.998 19.2194 87.1746 19.575C87.3311 19.893 87.5191 20.1945 87.7358 20.4749C87.8643 20.6696 88.0504 20.8193 88.268 20.9031H84.8957C84.7215 20.8865 84.5591 20.8075 84.4385 20.6806C84.2595 20.5192 84.1011 20.3363 83.9668 20.1363C83.8084 19.9039 83.6654 19.6615 83.5386 19.4105C83.4081 19.1541 83.2997 18.887 83.2144 18.6122L82.0629 14.8649ZM77.3987 10.2008C78.483 10.3249 79.5238 10.6983 80.4396 11.2918C81.3672 11.9054 82.0655 12.8088 82.4258 13.8609C82.3288 13.5062 82.19 13.1643 82.0121 12.8425C81.8742 12.6151 81.7315 12.3949 81.5839 12.1772C81.4191 11.9319 81.2712 11.6757 81.1412 11.4103C80.9498 10.9999 80.7881 10.5763 80.6574 10.1427C80.5775 9.86691 80.4808 9.54758 80.3622 9.17503C80.2437 8.80248 80.1203 8.43718 80.009 8.05253C79.8977 7.66789 79.7671 7.28082 79.6534 6.88892C79.5397 6.49701 79.4284 6.13898 79.3292 5.82449L79.1817 5.38178C79.143 5.26324 79.1018 5.13986 79.0631 5.02858C79.0244 4.9173 78.9857 4.78666 78.9446 4.67296L77.3987 10.2008Z" fill="#01295F"/>
<path d="M94.7628 20.2645C95.1873 20.2635 95.6112 20.2296 96.0304 20.1628C96.4442 20.0994 96.8436 19.9643 97.211 19.7637C97.5609 19.5728 97.8635 19.3058 98.0964 18.9823C98.3465 18.6128 98.4712 18.1726 98.452 17.7268C98.4724 17.0166 98.2116 16.3272 97.7263 15.8084C97.1953 15.2583 96.5894 14.7859 95.9264 14.4052C95.1653 13.9623 94.3821 13.5586 93.5798 13.1957C92.7555 12.8261 91.9696 12.3764 91.2332 11.853C90.5338 11.3616 89.9248 10.7526 89.4334 10.0532C88.9347 9.30399 88.6834 8.41732 88.7149 7.51789C88.6851 6.74503 88.9188 5.98498 89.3777 5.36242C89.8337 4.78172 90.4118 4.30846 91.0711 3.97623C91.7671 3.61546 92.5133 3.36104 93.2847 3.22146C94.0289 3.08047 94.7843 3.00679 95.5418 3.00131C96.4895 2.98565 97.4344 3.11038 98.3456 3.37144C99.0613 3.57446 99.7428 3.88264 100.368 4.28589C100.853 4.59618 101.273 4.997 101.607 5.46644C101.862 5.80391 102.011 6.20987 102.035 6.63248L99.6519 8.48556C99.7026 7.68697 99.6025 6.88598 99.3568 6.12445C99.2345 5.82197 99.0864 5.53059 98.9141 5.25356C98.7283 4.95957 98.4877 4.70413 98.2053 4.50119C97.8848 4.27279 97.5316 4.09417 97.1578 3.9714C96.6884 3.82391 96.1982 3.75365 95.7063 3.76335C94.7015 3.76335 93.8903 4.02381 93.2726 4.54474C92.9661 4.80204 92.7228 5.12624 92.5613 5.49239C92.3998 5.85853 92.3245 6.25685 92.3412 6.65667C92.3287 7.35248 92.5892 8.02551 93.067 8.53152C93.592 9.08547 94.1931 9.56198 94.8523 9.94673C95.6082 10.3951 96.3866 10.8045 97.1844 11.1732C97.9967 11.546 98.7767 11.9853 99.5164 12.4869C100.195 12.9396 100.798 13.4973 101.302 14.1391C101.794 14.7868 102.05 15.5831 102.028 16.3962C102.022 16.9719 101.88 17.538 101.614 18.0485C101.306 18.6379 100.86 19.1442 100.315 19.5242C99.6366 20.0008 98.8836 20.3605 98.0867 20.5886C95.8617 21.1615 93.5248 21.1356 91.3131 20.5136C90.5304 20.262 89.7947 19.8827 89.1358 19.3911C88.6741 19.0636 88.2839 18.6455 87.9891 18.1622C87.8378 17.9028 87.7092 17.6308 87.6045 17.3494L89.997 15.431C90.1134 16.2751 90.3727 17.0932 90.7639 17.8501C91.1307 18.4977 91.6244 19.0646 92.2154 19.5169C92.8444 20.0169 93.6935 20.2661 94.7628 20.2645Z" fill="#01295F"/>
<path d="M107.12 3.85526C106.541 3.84824 105.969 3.97928 105.451 4.2375C104.616 4.65348 103.901 5.27341 103.37 6.03978C103.241 6.21329 103.133 6.40074 103.046 6.5986V3.7077C103.045 3.63324 103.065 3.56 103.104 3.49688C103.144 3.43375 103.201 3.38345 103.269 3.35208C103.44 3.26706 103.624 3.20756 103.813 3.17548C104.038 3.13594 104.265 3.11169 104.493 3.10291C104.735 3.10291 104.926 3.08839 105.083 3.08839H116.949C117.286 3.10789 117.622 3.15727 117.95 3.23596C118.287 3.31337 118.454 3.47788 118.454 3.7077V6.5986C118.366 6.40128 118.257 6.21394 118.129 6.03978C117.893 5.70092 117.62 5.38864 117.317 5.1084C116.941 4.76192 116.519 4.46886 116.063 4.2375C115.538 3.97495 114.957 3.84378 114.37 3.85526H112.452V18.6122C112.451 18.88 112.426 19.1472 112.377 19.4105C112.334 19.659 112.265 19.9023 112.171 20.1362C112.095 20.3318 111.991 20.5151 111.861 20.6805C111.819 20.7447 111.762 20.7982 111.695 20.8368C111.628 20.8754 111.554 20.8981 111.477 20.9031H108.09C108.251 20.8644 108.384 20.7217 108.489 20.4749C108.611 20.1845 108.705 19.8832 108.77 19.575C108.85 19.2093 108.909 18.8394 108.946 18.467C108.985 18.0848 109.007 17.7413 109.007 17.4485V3.85526H107.12Z" fill="#01295F"/>
<path d="M120.43 5.36001C120.43 5.10376 120.416 4.84773 120.387 4.59313C120.36 4.35273 120.311 4.11539 120.239 3.88432C120.179 3.68665 120.084 3.50142 119.959 3.33759C119.909 3.2719 119.847 3.2167 119.776 3.17517C119.705 3.13364 119.626 3.10662 119.545 3.09567H129.374C129.531 3.09567 129.727 3.09567 129.964 3.11019C130.191 3.11897 130.418 3.14321 130.642 3.18276C130.832 3.21448 131.016 3.27398 131.188 3.35936C131.256 3.39073 131.313 3.44103 131.352 3.50416C131.392 3.56728 131.412 3.64052 131.411 3.71498V6.59862C131.323 6.40093 131.213 6.21352 131.084 6.0398C130.847 5.69815 130.57 5.38556 130.259 5.10842C129.875 4.76464 129.448 4.47191 128.989 4.23752C128.464 3.97424 127.883 3.84303 127.296 3.85529H123.706C123.831 4.14347 123.892 4.45554 123.885 4.76974V11.6764H127.18C127.763 11.7015 128.344 11.5853 128.873 11.3378C129.306 11.1104 129.563 10.9192 129.643 10.762V11.7297C129.642 11.7983 129.624 11.8656 129.59 11.9253C129.556 11.985 129.508 12.035 129.449 12.0708C129.308 12.1651 129.154 12.2392 128.992 12.2909C128.805 12.3531 128.612 12.3929 128.416 12.4094C128.211 12.4288 128.03 12.4385 127.872 12.4385H123.885V18.6073C123.875 18.8232 123.913 19.0386 123.997 19.2378C124.08 19.437 124.207 19.615 124.369 19.7589C124.658 20.0251 125.037 20.1728 125.431 20.1725H127.32C127.908 20.1852 128.489 20.0531 129.014 19.7879C129.473 19.5535 129.9 19.2608 130.284 18.917C130.597 18.6387 130.875 18.3217 131.109 17.9735C131.237 17.7935 131.347 17.6006 131.435 17.3978V20.3008C131.437 20.375 131.417 20.4481 131.377 20.5109C131.338 20.5738 131.28 20.6235 131.213 20.654C131.041 20.7415 130.856 20.8011 130.666 20.8306C130.442 20.8721 130.216 20.8972 129.988 20.9055C129.747 20.9055 129.555 20.9201 129.398 20.9201H122.557C122.264 20.9317 121.972 20.8765 121.703 20.7587C121.435 20.641 121.196 20.4637 121.006 20.2403C120.622 19.7881 120.417 19.2104 120.43 18.617V5.36001Z" fill="#01295F"/>
<path d="M137.253 18.6122C137.252 18.8799 137.228 19.147 137.18 19.4105C137.136 19.6589 137.066 19.9021 136.972 20.1363C136.896 20.3318 136.792 20.5152 136.663 20.6806C136.62 20.7445 136.564 20.7978 136.497 20.8364C136.431 20.8749 136.357 20.8978 136.28 20.9031H132.894C133.051 20.8644 133.184 20.7217 133.29 20.475C133.413 20.1849 133.507 19.8835 133.571 19.575C133.652 19.2096 133.711 18.8396 133.748 18.4671C133.786 18.1289 133.806 17.7889 133.808 17.4486V15.2713H133.837V4.94151C133.805 4.52312 133.716 4.11114 133.571 3.71742C133.433 3.35454 133.227 3.15133 132.952 3.11263V3.0836H140.507C141.489 3.04933 142.463 3.27817 143.327 3.74645C144.041 4.14848 144.643 4.72117 145.081 5.41325C145.49 6.08039 145.738 6.83306 145.807 7.61227C145.89 8.38045 145.799 9.15736 145.543 9.88628C145.286 10.6059 144.86 11.2536 144.302 11.7756C143.696 12.3327 142.939 12.6973 142.125 12.8231C142.635 12.9928 143.082 13.3113 143.41 13.7376C143.79 14.2145 144.121 14.7283 144.399 15.2713C144.703 15.8614 144.973 16.4679 145.21 17.0881C145.451 17.7268 145.693 18.3219 145.918 18.8735C146.109 19.3523 146.336 19.8157 146.598 20.2597C146.672 20.4138 146.777 20.5511 146.907 20.663C147.036 20.775 147.187 20.8592 147.35 20.9104H143.964C143.627 20.9104 143.349 20.7145 143.122 20.3201C142.86 19.8475 142.639 19.3539 142.459 18.8444C142.241 18.2542 142.004 17.6082 141.75 16.9091C141.502 16.2295 141.177 15.5802 140.782 14.9738C140.41 14.3954 139.93 13.8944 139.367 13.4981C138.742 13.0866 138.004 12.8803 137.255 12.9078L137.253 18.6122ZM137.253 12.1482H137.785C137.952 12.1477 138.12 12.1574 138.286 12.1772H139.171C139.827 12.201 140.467 11.9803 140.969 11.5579C141.457 11.1379 141.837 10.607 142.077 10.0097C142.336 9.37234 142.467 8.68989 142.461 8.00175C142.467 7.31629 142.347 6.63563 142.106 5.99385C141.884 5.39478 141.514 4.86197 141.029 4.44558C140.511 4.02002 139.854 3.79964 139.183 3.82628H137.265V4.59315L137.294 4.74072V5.82451H137.265L137.253 12.1482Z" fill="#01295F"/>
<path d="M152.513 18.6122C152.512 18.88 152.487 19.1472 152.438 19.4105C152.396 19.659 152.327 19.9023 152.232 20.1362C152.155 20.3313 152.051 20.5146 151.923 20.6805C151.88 20.7447 151.823 20.7982 151.757 20.8368C151.69 20.8754 151.615 20.8981 151.538 20.9031H148.151C148.313 20.8644 148.446 20.7217 148.551 20.4749C148.672 20.1845 148.766 19.8832 148.831 19.575C148.911 19.2093 148.97 18.8394 149.008 18.467C149.046 18.0848 149.066 17.7413 149.066 17.4485V4.76972C149.049 4.34682 149.151 3.92768 149.361 3.56013C149.423 3.42875 149.518 3.31598 149.638 3.23318C149.757 3.15037 149.896 3.10044 150.041 3.08839H153.406C153.324 3.09935 153.246 3.12636 153.175 3.16789C153.104 3.20942 153.042 3.26463 152.992 3.33031C152.866 3.49415 152.771 3.67937 152.711 3.87704C152.64 4.10811 152.591 4.34545 152.564 4.58586C152.535 4.84045 152.52 5.09649 152.52 5.35273L152.513 18.6122Z" fill="#01295F"/>
<path d="M155.375 5.38905C155.375 5.13281 155.36 4.87677 155.331 4.62217C155.304 4.38176 155.255 4.14443 155.184 3.91336C155.124 3.71637 155.029 3.53192 154.903 3.36904C154.854 3.30316 154.792 3.24782 154.721 3.20627C154.649 3.16472 154.571 3.13782 154.489 3.12713H157.854C157.999 3.13917 158.138 3.1891 158.257 3.27191C158.377 3.35472 158.472 3.46748 158.534 3.59886C158.744 3.96641 158.846 4.38555 158.829 4.80844V16.6454C158.805 17.2492 158.937 17.8491 159.211 18.3872C159.447 18.8153 159.778 19.1836 160.179 19.4637C160.545 19.7219 160.955 19.912 161.389 20.025C162.111 20.2405 162.88 20.2405 163.602 20.025C164.032 19.9137 164.437 19.7234 164.797 19.4637C165.243 19.1469 165.602 18.7222 165.839 18.2294C166.076 17.7365 166.185 17.1916 166.154 16.6454V3.0981H169.58V15.985C169.58 17.0462 169.344 17.8977 168.871 18.5396C168.408 19.1705 167.801 19.6814 167.1 20.0298C166.376 20.3884 165.598 20.6278 164.797 20.7386C163.274 20.9733 161.724 20.9733 160.201 20.7386C159.396 20.6264 158.614 20.3871 157.883 20.0298C157.177 19.6845 156.564 19.1732 156.098 18.5396C155.625 17.8945 155.389 17.043 155.389 15.985L155.375 5.38905Z" fill="#01295F"/>
<path d="M171.579 4.79874C171.552 4.40562 171.47 4.01814 171.337 3.64722C171.3 3.50634 171.223 3.37902 171.116 3.28008C171.009 3.18114 170.876 3.11466 170.732 3.08839H175.012L180.561 17.4897L186.111 3.11742V3.08839H190.449C190.153 3.1271 189.938 3.35208 189.8 3.76576C189.656 4.20443 189.574 4.66137 189.558 5.12291V18.6122C189.557 18.8799 189.533 19.147 189.486 19.4105C189.441 19.6589 189.372 19.902 189.278 20.1362C189.202 20.3318 189.097 20.5151 188.968 20.6805C188.926 20.7447 188.869 20.7982 188.803 20.8368C188.737 20.8754 188.662 20.8981 188.586 20.9031H185.155C185.317 20.8644 185.455 20.7217 185.569 20.4749C185.702 20.1872 185.801 19.8853 185.864 19.575C185.945 19.2096 186.004 18.8396 186.041 18.467C186.079 18.1288 186.099 17.7889 186.101 17.4485V5.03582L179.962 20.9442H179.236V20.9152H178.44L172.329 5.06485V20.9152H171.591L171.579 4.79874Z" fill="#01295F"/>
</svg>
