<svg width="24" height="24" viewBox="0 0 24 24" fill="none" xmlns="http://www.w3.org/2000/svg">
<mask id="mask0_90_7537" style="mask-type:luminance" maskUnits="userSpaceOnUse" x="1" y="2" width="21" height="20">
<path d="M1.85352 2.63417H21.434V21.5825H1.85352V2.63417Z" fill="white"/>
</mask>
<g mask="url(#mask0_90_7537)">
<path d="M20.451 15.3893C20.7379 15.3893 20.9662 15.2137 20.9662 15.003V3.48882C20.9662 3.27809 20.732 3.10248 20.451 3.10248H2.83739C2.55056 3.10248 2.32227 3.27809 2.32227 3.48882V15.003C2.32227 15.2137 2.55641 15.3893 2.83739 15.3893H20.451Z" fill="white" stroke="#001D55" stroke-width="0.936585" stroke-linejoin="round"/>
<path d="M18.196 5.4849H5.08379C4.98328 5.48458 4.88677 5.52417 4.81543 5.59496C4.74409 5.66575 4.70376 5.76196 4.7033 5.86246C4.7033 6.07085 4.87364 6.24002 5.08379 6.24002H18.196C18.4067 6.24002 18.5765 6.07085 18.5765 5.86246C18.576 5.76196 18.5357 5.66575 18.4643 5.59496C18.393 5.52417 18.2965 5.48458 18.196 5.4849ZM7.94154 15.84V17.0342L6.71227 18.2634C6.4423 18.1132 6.13776 18.0362 5.82885 18.04C5.51994 18.0438 5.21739 18.1283 4.95118 18.2851C4.68498 18.4418 4.46437 18.6654 4.31123 18.9337C4.15809 19.202 4.07773 19.5057 4.07813 19.8147C4.07813 20.0473 4.12404 20.2777 4.21325 20.4925C4.30246 20.7074 4.4332 20.9025 4.59797 21.0668C4.76275 21.231 4.95832 21.3611 5.17348 21.4496C5.38863 21.5381 5.61914 21.5832 5.85178 21.5825C6.82935 21.5825 7.61959 20.7922 7.61959 19.8147C7.61959 19.4986 7.53764 19.2059 7.39715 18.9483L8.76691 17.5786C8.86057 17.4849 8.90739 17.362 8.90739 17.239V15.84H7.94154ZM5.85178 20.6166C5.63832 20.6166 5.43359 20.5318 5.28265 20.3809C5.13171 20.2299 5.04691 20.0252 5.04691 19.8117C5.04691 19.5983 5.13171 19.3935 5.28265 19.2426C5.43359 19.0916 5.63832 19.0068 5.85178 19.0068C6.06837 19.0068 6.26739 19.0947 6.41374 19.2351H6.41959L6.42544 19.2527C6.56593 19.3932 6.65374 19.5922 6.65374 19.8147C6.65374 20.2595 6.29666 20.6166 5.85178 20.6166ZM12.1269 18.1054V15.84H11.1611V18.1054C10.4176 18.3161 9.87325 19.001 9.87325 19.8147C9.87325 20.7922 10.6693 21.5825 11.6469 21.5825C12.6245 21.5825 13.4147 20.7922 13.4147 19.8147C13.4147 19.001 12.8703 18.3161 12.1269 18.1054ZM11.6469 20.6166C11.4334 20.6166 11.2287 20.5318 11.0778 20.3809C10.9268 20.2299 10.842 20.0252 10.842 19.8117C10.842 19.5983 10.9268 19.3935 11.0778 19.2426C11.2287 19.0916 11.4334 19.0068 11.6469 19.0068C12.0918 19.0068 12.4489 19.3698 12.4489 19.8147C12.4489 20.2595 12.0918 20.6166 11.6469 20.6166ZM17.442 18.041C17.1259 18.041 16.8332 18.1229 16.5815 18.2634L15.3523 17.0342V15.84H14.3864V17.239C14.3864 17.362 14.4332 17.4849 14.5269 17.5786L15.8967 18.9483C15.7503 19.2059 15.6742 19.4986 15.6742 19.8147C15.6742 20.7922 16.4645 21.5825 17.442 21.5825C18.4196 21.5825 19.2157 20.7922 19.2157 19.8147C19.2157 18.8371 18.4196 18.041 17.442 18.041ZM17.442 20.6166C16.9972 20.6166 16.6401 20.2595 16.6401 19.8147C16.6401 19.5922 16.722 19.3932 16.8684 19.2527V19.241L16.8801 19.2351C17.0264 19.0947 17.2254 19.0068 17.442 19.0068C17.6555 19.0068 17.8602 19.0916 18.0112 19.2426C18.1621 19.3935 18.2469 19.5983 18.2469 19.8117C18.2469 20.0252 18.1621 20.2299 18.0112 20.3809C17.8602 20.5318 17.6555 20.6166 17.442 20.6166Z" fill="#001D55"/>
</g>
</svg>
