<svg width="25" height="24" viewBox="0 0 25 24" fill="none" xmlns="http://www.w3.org/2000/svg">
<path d="M22.2969 15V9C22.2969 4 20.2969 2 15.2969 2H9.29688C4.29688 2 2.29688 4 2.29688 9V15C2.29688 20 4.29688 22 9.29688 22H15.2969C20.2969 22 22.2969 20 22.2969 15Z" stroke="#001D55" stroke-width="1.8" stroke-linecap="round" stroke-linejoin="round"/>
<path d="M2.81689 7.10986H21.7769" stroke="#001D55" stroke-width="1.8" stroke-linecap="round" stroke-linejoin="round"/>
<path d="M8.81689 2.11035V6.97035" stroke="#001D55" stroke-width="1.8" stroke-linecap="round" stroke-linejoin="round"/>
<path d="M15.7769 2.11035V6.52035" stroke="#001D55" stroke-width="2.25" stroke-linecap="round" stroke-linejoin="round"/>
<path d="M10.0469 14.4501V13.2501C10.0469 11.7101 11.1369 11.0801 12.4669 11.8501L13.5069 12.4501L14.5469 13.0501C15.8769 13.8201 15.8769 15.0801 14.5469 15.8501L13.5069 16.4501L12.4669 17.0501C11.1369 17.8201 10.0469 17.1901 10.0469 15.6501V14.4501V14.4501Z" stroke="#001D55" stroke-width="2.25" stroke-miterlimit="10" stroke-linecap="round" stroke-linejoin="round"/>
</svg>
