<svg width="27" height="26" viewBox="0 0 27 26" fill="none" xmlns="http://www.w3.org/2000/svg">
<path d="M25.2674 17.5191C25.6499 17.5191 25.9542 17.2849 25.9542 17.0039V1.65175C25.9542 1.37077 25.642 1.13663 25.2674 1.13663H1.78253C1.40009 1.13663 1.0957 1.37077 1.0957 1.65175V17.0039C1.0957 17.2849 1.4079 17.5191 1.78253 17.5191H25.2674Z" fill="white" stroke="#001D55" stroke-width="1.24878" stroke-linejoin="round"/>
<path d="M22.2613 4.3132H4.77838C4.64438 4.31279 4.51569 4.36557 4.42057 4.45996C4.32546 4.55434 4.27168 4.68262 4.27106 4.81662C4.27106 5.09447 4.49819 5.32003 4.77838 5.32003H22.2613C22.5423 5.32003 22.7686 5.09447 22.7686 4.81662C22.768 4.68262 22.7142 4.55434 22.6191 4.45996C22.524 4.36557 22.3953 4.31279 22.2613 4.3132ZM8.58872 18.12V19.7122L6.9497 21.3513C6.58973 21.151 6.18368 21.0483 5.7718 21.0534C5.35992 21.0584 4.95652 21.1711 4.60158 21.3801C4.24664 21.5891 3.9525 21.8873 3.74831 22.245C3.54412 22.6027 3.43698 23.0076 3.4375 23.4195C3.4375 23.7297 3.49873 24.0369 3.61767 24.3234C3.73661 24.6098 3.91093 24.87 4.13063 25.089C4.35033 25.308 4.61109 25.4815 4.89797 25.5994C5.18484 25.7174 5.49219 25.7776 5.80238 25.7766C7.10579 25.7766 8.15945 24.723 8.15945 23.4195C8.15945 22.9981 8.05018 22.6078 7.86287 22.2644L9.68921 20.4381C9.81409 20.3132 9.87653 20.1493 9.87653 19.9854V18.12H8.58872ZM5.80238 24.4888C5.51776 24.4888 5.24479 24.3757 5.04353 24.1745C4.84227 23.9732 4.72921 23.7003 4.72921 23.4156C4.72921 23.131 4.84227 22.8581 5.04353 22.6568C5.24479 22.4555 5.51776 22.3425 5.80238 22.3425C6.09116 22.3425 6.35653 22.4595 6.55165 22.6469H6.55945L6.56726 22.6703C6.75458 22.8576 6.87165 23.123 6.87165 23.4195C6.87165 24.0127 6.39555 24.4888 5.80238 24.4888ZM14.1692 21.1405V18.12H12.8814V21.1405C11.8902 21.4215 11.1643 22.3347 11.1643 23.4195C11.1643 24.723 12.2258 25.7766 13.5292 25.7766C14.8326 25.7766 15.8863 24.723 15.8863 23.4195C15.8863 22.3347 15.1604 21.4215 14.1692 21.1405ZM13.5292 24.4888C13.2446 24.4888 12.9716 24.3757 12.7704 24.1745C12.5691 23.9732 12.456 23.7003 12.456 23.4156C12.456 23.131 12.5691 22.8581 12.7704 22.6568C12.9716 22.4555 13.2446 22.3425 13.5292 22.3425C14.1224 22.3425 14.5985 22.8264 14.5985 23.4195C14.5985 24.0127 14.1224 24.4888 13.5292 24.4888ZM21.256 21.0547C20.8346 21.0547 20.4443 21.1639 20.1087 21.3513L18.4697 19.7122V18.12H17.1819V19.9854C17.1819 20.1493 17.2443 20.3132 17.3692 20.4381L19.1955 22.2644C19.0004 22.6078 18.899 22.9981 18.899 23.4195C18.899 24.723 19.9526 25.7766 21.256 25.7766C22.5595 25.7766 23.6209 24.723 23.6209 23.4195C23.6209 22.1161 22.5595 21.0547 21.256 21.0547ZM21.256 24.4888C20.6629 24.4888 20.1868 24.0127 20.1868 23.4195C20.1868 23.123 20.296 22.8576 20.4912 22.6703V22.6547L20.5068 22.6469C20.7019 22.4595 20.9673 22.3425 21.256 22.3425C21.5407 22.3425 21.8136 22.4555 22.0149 22.6568C22.2161 22.8581 22.3292 23.131 22.3292 23.4156C22.3292 23.7003 22.2161 23.9732 22.0149 24.1745C21.8136 24.3757 21.5407 24.4888 21.256 24.4888Z" fill="#001D55"/>
</svg>
