<svg width="25" height="24" viewBox="0 0 25 24" fill="none" xmlns="http://www.w3.org/2000/svg">
<path d="M9.45742 10.87C9.35742 10.86 9.23742 10.86 9.12742 10.87C6.74742 10.79 4.85742 8.84 4.85742 6.44C4.85742 3.99 6.83742 2 9.29742 2C11.7474 2 13.7374 3.99 13.7374 6.44C13.7274 8.84 11.8374 10.79 9.45742 10.87Z" stroke="#001D55" stroke-width="1.8" stroke-linecap="round" stroke-linejoin="round"/>
<path d="M16.7071 4C18.6471 4 20.2071 5.57 20.2071 7.5C20.2071 9.39 18.7071 10.93 16.8371 11C16.7571 10.99 16.6671 10.99 16.5771 11" stroke="#001D55" stroke-width="1.8" stroke-linecap="round" stroke-linejoin="round"/>
<path d="M4.45758 14.56C2.03758 16.18 2.03758 18.82 4.45758 20.43C7.20758 22.27 11.7176 22.27 14.4676 20.43C16.8876 18.81 16.8876 16.17 14.4676 14.56C11.7276 12.73 7.21758 12.73 4.45758 14.56Z" stroke="#001D55" stroke-width="1.8" stroke-linecap="round" stroke-linejoin="round"/>
<path d="M18.6367 20C19.3567 19.85 20.0367 19.56 20.5967 19.13C22.1567 17.96 22.1567 16.03 20.5967 14.86C20.0467 14.44 19.3767 14.16 18.6667 14" stroke="#001D55" stroke-width="2.25" stroke-linecap="round" stroke-linejoin="round"/>
</svg>
