<svg width="24" height="30" viewBox="0 0 24 30" fill="none" xmlns="http://www.w3.org/2000/svg">
<path d="M20.0454 15.9276C20.06 14.8094 20.3603 13.713 20.9185 12.7404C21.4766 11.7678 22.2745 10.9507 23.2378 10.365C22.6258 9.50068 21.8185 8.78937 20.8799 8.28758C19.9414 7.78579 18.8975 7.50734 17.8311 7.47434C15.5563 7.23821 13.3509 8.82052 12.1917 8.82052C11.0101 8.82052 9.22533 7.49779 7.30342 7.53689C6.06028 7.57661 4.84874 7.93412 3.78685 8.57458C2.72496 9.21504 1.84893 10.1166 1.24411 11.1914C-1.37581 15.6773 0.578418 22.2701 3.08808 25.8962C4.34372 27.6718 5.81121 29.6551 7.73138 29.5848C9.61038 29.5077 10.3122 28.3999 12.5803 28.3999C14.8273 28.3999 15.4857 29.5848 17.4449 29.5401C19.4611 29.5077 20.7315 27.7566 21.9431 25.9642C22.8452 24.6991 23.5394 23.3008 24 21.8212C22.8286 21.3312 21.829 20.511 21.1257 19.463C20.4225 18.415 20.0468 17.1854 20.0454 15.9276Z" fill="black"/>
<path d="M16.3462 5.08968C17.4456 3.78453 17.9872 2.10697 17.856 0.413269C16.1765 0.587727 14.625 1.38158 13.5108 2.63666C12.9661 3.2498 12.5488 3.96311 12.283 4.73581C12.0172 5.50852 11.9079 6.32546 11.9615 7.13995C12.8016 7.1485 13.6327 6.96843 14.3922 6.61329C15.1517 6.25815 15.8198 5.7372 16.3462 5.08968Z" fill="black"/>
</svg>
