<svg width="24" height="24" viewBox="0 0 24 24" fill="none" xmlns="http://www.w3.org/2000/svg">
<path d="M14.5299 9.47L9.46992 14.53C8.81992 13.88 8.41992 12.99 8.41992 12C8.41992 10.02 10.0199 8.42 11.9999 8.42C12.9899 8.42 13.8799 8.82 14.5299 9.47Z" stroke="#333333" stroke-width="1.5" stroke-linecap="round" stroke-linejoin="round"/>
<path d="M17.8198 5.77047C16.0698 4.45047 14.0698 3.73047 11.9998 3.73047C8.46984 3.73047 5.17984 5.81047 2.88984 9.41047C1.98984 10.8205 1.98984 13.1905 2.88984 14.6005C3.67984 15.8405 4.59984 16.9105 5.59984 17.7705" stroke="#333333" stroke-width="1.5" stroke-linecap="round" stroke-linejoin="round"/>
<path d="M8.41992 19.5297C9.55992 20.0097 10.7699 20.2697 11.9999 20.2697C15.5299 20.2697 18.8199 18.1897 21.1099 14.5897C22.0099 13.1797 22.0099 10.8097 21.1099 9.39969C20.7799 8.87969 20.4199 8.38969 20.0499 7.92969" stroke="#333333" stroke-width="1.5" stroke-linecap="round" stroke-linejoin="round"/>
<path d="M15.5104 12.7C15.2504 14.11 14.1004 15.26 12.6904 15.52" stroke="#333333" stroke-width="1.5" stroke-linecap="round" stroke-linejoin="round"/>
<path d="M9.47 14.5303L2 22.0003" stroke="#333333" stroke-width="1.5" stroke-linecap="round" stroke-linejoin="round"/>
<path d="M22.0003 2L14.5303 9.47" stroke="#333333" stroke-width="1.5" stroke-linecap="round" stroke-linejoin="round"/>
</svg>
