<svg width="24" height="25" viewBox="0 0 24 25" fill="none" xmlns="http://www.w3.org/2000/svg">
<path fill-rule="evenodd" clip-rule="evenodd" d="M12 0.118164C5.37258 0.118164 0 5.49075 0 12.1182C0 18.7456 5.37258 24.1182 12 24.1182C18.6274 24.1182 24 18.7456 24 12.1182C24 5.49075 18.6274 0.118164 12 0.118164ZM9.36164 5.75683C10.0443 5.72576 10.2624 5.71816 12.0006 5.71816H11.9986C13.7373 5.71816 13.9546 5.72576 14.6373 5.75683C15.3186 5.78803 15.784 5.8959 16.192 6.05417C16.6133 6.2175 16.9693 6.43617 17.3253 6.79218C17.6813 7.14791 17.9 7.50498 18.064 7.92592C18.2213 8.33286 18.3293 8.79793 18.3613 9.47927C18.392 10.1619 18.4 10.3801 18.4 12.1182C18.4 13.8564 18.392 14.074 18.3613 14.7567C18.3293 15.4377 18.2213 15.9029 18.064 16.31C17.9 16.7308 17.6813 17.0879 17.3253 17.4436C16.9697 17.7996 16.6132 18.0188 16.1924 18.1823C15.7852 18.3406 15.3196 18.4484 14.6382 18.4796C13.9556 18.5107 13.7381 18.5183 11.9998 18.5183C10.2618 18.5183 10.0438 18.5107 9.36111 18.4796C8.6799 18.4484 8.21469 18.3406 7.80749 18.1823C7.38682 18.0188 7.02975 17.7996 6.67414 17.4436C6.31827 17.0879 6.09961 16.7308 5.936 16.3099C5.77787 15.9029 5.67 15.4379 5.63867 14.7565C5.60773 14.0739 5.6 13.8564 5.6 12.1182C5.6 10.3801 5.608 10.1618 5.63853 9.47914C5.6692 8.79806 5.7772 8.33286 5.93587 7.92579C6.09987 7.50498 6.31854 7.14791 6.67454 6.79218C7.03028 6.43631 7.38735 6.21764 7.80829 6.05417C8.21523 5.8959 8.6803 5.78803 9.36164 5.75683Z" fill="#F0E7D8"/>
<path fill-rule="evenodd" clip-rule="evenodd" d="M11.4265 6.87147C11.538 6.8713 11.6579 6.87135 11.7873 6.87141L12.0006 6.87147C13.7094 6.87147 13.912 6.87761 14.5868 6.90827C15.2108 6.93681 15.5495 7.04107 15.7751 7.12868C16.0737 7.24468 16.2867 7.38335 16.5105 7.60735C16.7345 7.83135 16.8732 8.04469 16.9895 8.34336C17.0771 8.56869 17.1815 8.90736 17.2099 9.53137C17.2405 10.206 17.2472 10.4087 17.2472 12.1167C17.2472 13.8247 17.2405 14.0274 17.2099 14.7021C17.1813 15.3261 17.0771 15.6648 16.9895 15.8901C16.8735 16.1888 16.7345 16.4014 16.5105 16.6253C16.2865 16.8493 16.0739 16.988 15.7751 17.104C15.5497 17.192 15.2108 17.296 14.5868 17.3245C13.9121 17.3552 13.7094 17.3618 12.0006 17.3618C10.2917 17.3618 10.0891 17.3552 9.41447 17.3245C8.79046 17.2957 8.45179 17.1914 8.22605 17.1038C7.92738 16.9878 7.71405 16.8492 7.49005 16.6252C7.26604 16.4012 7.12738 16.1884 7.01111 15.8896C6.92351 15.6642 6.81911 15.3256 6.79071 14.7016C6.76004 14.0269 6.75391 13.8242 6.75391 12.1151C6.75391 10.406 6.76004 10.2044 6.79071 9.52977C6.81924 8.90576 6.92351 8.56709 7.01111 8.34149C7.12711 8.04282 7.26604 7.82948 7.49005 7.60548C7.71405 7.38148 7.92738 7.24281 8.22605 7.12654C8.45166 7.03854 8.79046 6.93454 9.41447 6.90587C10.0049 6.87921 10.2337 6.87121 11.4265 6.86987V6.87147ZM15.4169 7.93415C14.9929 7.93415 14.6489 8.27775 14.6489 8.70189C14.6489 9.1259 14.9929 9.4699 15.4169 9.4699C15.8409 9.4699 16.1849 9.1259 16.1849 8.70189C16.1849 8.27789 15.8409 7.93388 15.4169 7.93388V7.93415ZM8.71393 12.1182C8.71393 10.3032 10.1855 8.83156 12.0005 8.83149C13.8156 8.83149 15.2868 10.3031 15.2868 12.1182C15.2868 13.9333 13.8157 15.4042 12.0006 15.4042C10.1855 15.4042 8.71393 13.9333 8.71393 12.1182Z" fill="#F0E7D8"/>
<path d="M12.0005 9.98486C13.1787 9.98486 14.1339 10.9399 14.1339 12.1182C14.1339 13.2964 13.1787 14.2516 12.0005 14.2516C10.8223 14.2516 9.86719 13.2964 9.86719 12.1182C9.86719 10.9399 10.8223 9.98486 12.0005 9.98486Z" fill="#F0E7D8"/>
</svg>
