<svg width="24" height="25" viewBox="0 0 24 25" fill="none" xmlns="http://www.w3.org/2000/svg">
<path fill-rule="evenodd" clip-rule="evenodd" d="M0 12.1182C0 18.7456 5.37258 24.1182 12 24.1182C18.6274 24.1182 24 18.7456 24 12.1182C24 5.49075 18.6274 0.118164 12 0.118164C5.37258 0.118164 0 5.49075 0 12.1182ZM9.8 17.6182L10.0042 14.5593L10.004 14.5592L15.5685 9.53766C15.8127 9.32092 15.5151 9.21523 15.1909 9.41182L8.32364 13.7443L5.35734 12.8185C4.71675 12.6224 4.71215 12.1822 5.50116 11.8657L17.0602 7.40859C17.5881 7.16891 18.0976 7.53539 17.8961 8.34341L15.9276 17.6197C15.7901 18.2789 15.3919 18.4366 14.84 18.1321L11.8414 15.9166L10.4 17.3182C10.3955 17.3226 10.3909 17.327 10.3864 17.3314C10.2252 17.4883 10.0919 17.6182 9.8 17.6182Z" fill="#F0E7D8"/>
</svg>
