<svg width="24" height="25" viewBox="0 0 24 25" fill="none" xmlns="http://www.w3.org/2000/svg">
<path fill-rule="evenodd" clip-rule="evenodd" d="M12 0.118164C5.37258 0.118164 0 5.49075 0 12.1182C0 18.7456 5.37258 24.1182 12 24.1182C18.6274 24.1182 24 18.7456 24 12.1182C24 5.49075 18.6274 0.118164 12 0.118164ZM17.0008 7.99283C17.5516 8.14396 17.9853 8.58927 18.1325 9.15477C18.4 10.1797 18.4 12.3182 18.4 12.3182C18.4 12.3182 18.4 14.4566 18.1325 15.4816C17.9853 16.0471 17.5516 16.4924 17.0008 16.6436C16.0027 16.9182 12 16.9182 12 16.9182C12 16.9182 7.99731 16.9182 6.99913 16.6436C6.44836 16.4924 6.01462 16.0471 5.86742 15.4816C5.6 14.4566 5.6 12.3182 5.6 12.3182C5.6 12.3182 5.6 10.1797 5.86742 9.15477C6.01462 8.58927 6.44836 8.14396 6.99913 7.99283C7.99731 7.71816 12 7.71816 12 7.71816C12 7.71816 16.0027 7.71816 17.0008 7.99283Z" fill="#F0E7D8"/>
<path d="M10.7998 14.5181V10.5181L13.9998 12.5181L10.7998 14.5181Z" fill="#F0E7D8"/>
</svg>
