<svg width="25" height="24" viewBox="0 0 25 24" fill="none" xmlns="http://www.w3.org/2000/svg">
<path d="M17.2969 10H19.2969C21.2969 10 22.2969 9 22.2969 7V5C22.2969 3 21.2969 2 19.2969 2H17.2969C15.2969 2 14.2969 3 14.2969 5V7C14.2969 9 15.2969 10 17.2969 10Z" stroke="#677294" stroke-width="1.8" stroke-miterlimit="10" stroke-linecap="round" stroke-linejoin="round"/>
<path d="M5.29687 22H7.29687C9.29687 22 10.2969 21 10.2969 19V17C10.2969 15 9.29687 14 7.29687 14H5.29687C3.29687 14 2.29688 15 2.29688 17V19C2.29688 21 3.29687 22 5.29687 22Z" stroke="#677294" stroke-width="1.8" stroke-miterlimit="10" stroke-linecap="round" stroke-linejoin="round"/>
<path d="M6.29687 10C8.50601 10 10.2969 8.20914 10.2969 6C10.2969 3.79086 8.50601 2 6.29687 2C4.08774 2 2.29688 3.79086 2.29688 6C2.29688 8.20914 4.08774 10 6.29687 10Z" stroke="#677294" stroke-width="1.8" stroke-miterlimit="10" stroke-linecap="round" stroke-linejoin="round"/>
<path d="M18.2969 22C20.506 22 22.2969 20.2091 22.2969 18C22.2969 15.7909 20.506 14 18.2969 14C16.0877 14 14.2969 15.7909 14.2969 18C14.2969 20.2091 16.0877 22 18.2969 22Z" stroke="#677294" stroke-width="2.25" stroke-miterlimit="10" stroke-linecap="round" stroke-linejoin="round"/>
</svg>
