<svg width="25" height="24" viewBox="0 0 25 24" fill="none" xmlns="http://www.w3.org/2000/svg">
<path d="M18.5011 16.83L18.8911 19.99C18.9911 20.82 18.1011 21.4 17.3911 20.97L13.2011 18.48C12.7411 18.48 12.2911 18.45 11.8511 18.39C12.5911 17.52 13.0311 16.42 13.0311 15.23C13.0311 12.39 10.5711 10.09 7.5311 10.09C6.3711 10.09 5.3011 10.42 4.4111 11C4.3811 10.75 4.37109 10.5 4.37109 10.24C4.37109 5.68999 8.3211 2 13.2011 2C18.0811 2 22.0311 5.68999 22.0311 10.24C22.0311 12.94 20.6411 15.33 18.5011 16.83Z" stroke="#677294" stroke-width="1.8" stroke-linecap="round" stroke-linejoin="round"/>
<path d="M13.0312 15.2298C13.0312 16.4198 12.5913 17.5198 11.8513 18.3898C10.8613 19.5898 9.29125 20.3598 7.53125 20.3598L4.92125 21.9098C4.48125 22.1798 3.92125 21.8098 3.98125 21.2998L4.23125 19.3298C2.89125 18.3998 2.03125 16.9098 2.03125 15.2298C2.03125 13.4698 2.97125 11.9198 4.41125 10.9998C5.30125 10.4198 6.37125 10.0898 7.53125 10.0898C10.5712 10.0898 13.0312 12.3898 13.0312 15.2298Z" stroke="#677294" stroke-width="1.8" stroke-linecap="round" stroke-linejoin="round"/>
</svg>
