<svg width="25" height="24" viewBox="0 0 25 24" fill="none" xmlns="http://www.w3.org/2000/svg">
<path d="M9.8125 22H15.8125C20.8125 22 22.8125 20 22.8125 15V9C22.8125 4 20.8125 2 15.8125 2H9.8125C4.8125 2 2.8125 4 2.8125 9V15C2.8125 20 4.8125 22 9.8125 22Z" stroke="#677294" stroke-width="1.8" stroke-linecap="round" stroke-linejoin="round"/>
<path d="M9.8125 10C10.9171 10 11.8125 9.10457 11.8125 8C11.8125 6.89543 10.9171 6 9.8125 6C8.70793 6 7.8125 6.89543 7.8125 8C7.8125 9.10457 8.70793 10 9.8125 10Z" stroke="#677294" stroke-width="1.8" stroke-linecap="round" stroke-linejoin="round"/>
<path d="M3.48242 18.95L8.41242 15.64C9.20242 15.11 10.3424 15.17 11.0524 15.78L11.3824 16.07C12.1624 16.74 13.4224 16.74 14.2024 16.07L18.3624 12.5C19.1424 11.83 20.4024 11.83 21.1824 12.5L22.8124 13.9" stroke="#677294" stroke-width="1.8" stroke-linecap="round" stroke-linejoin="round"/>
</svg>
