<svg width="25" height="24" viewBox="0 0 25 24" fill="none" xmlns="http://www.w3.org/2000/svg">
<path d="M22.5938 15V9C22.5938 4 20.5938 2 15.5938 2H9.59375C4.59375 2 2.59375 4 2.59375 9V15C2.59375 20 4.59375 22 9.59375 22H15.5938C20.5938 22 22.5938 20 22.5938 15Z" stroke="#677294" stroke-width="1.8" stroke-linecap="round" stroke-linejoin="round"/>
<path d="M3.11377 7.11011H22.0738" stroke="#677294" stroke-width="1.8" stroke-linecap="round" stroke-linejoin="round"/>
<path d="M9.11377 2.11011V6.97011" stroke="#677294" stroke-width="1.8" stroke-linecap="round" stroke-linejoin="round"/>
<path d="M16.0737 2.11011V6.52011" stroke="#677294" stroke-width="2.25" stroke-linecap="round" stroke-linejoin="round"/>
<path d="M10.3438 14.4501V13.2501C10.3438 11.7101 11.4338 11.0801 12.7638 11.8501L13.8038 12.4501L14.8438 13.0501C16.1738 13.8201 16.1738 15.0801 14.8438 15.8501L13.8038 16.4501L12.7638 17.0501C11.4338 17.8201 10.3438 17.1901 10.3438 15.6501V14.4501V14.4501Z" stroke="#677294" stroke-width="2.25" stroke-miterlimit="10" stroke-linecap="round" stroke-linejoin="round"/>
</svg>
