<svg width="14" height="14" viewBox="0 0 14 14" fill="none" xmlns="http://www.w3.org/2000/svg">
<path d="M7.22523 11.6573C7.08609 11.5754 6.91348 11.5754 6.77434 11.6573L3.44923 13.6144C3.12017 13.8081 2.71618 13.524 2.78707 13.1489L3.54226 9.1517C3.56995 9.00516 3.52229 8.8545 3.41537 8.75054L0.5522 5.96666C0.284915 5.70678 0.437093 5.25311 0.807027 5.20698L4.63951 4.72904C4.79488 4.70966 4.9286 4.60996 4.99151 4.46657L6.59278 0.816626C6.74832 0.462109 7.25125 0.46211 7.40678 0.816628L9.00806 4.46657C9.07097 4.60996 9.20468 4.70966 9.36006 4.72904L13.1925 5.20698C13.5625 5.25311 13.7146 5.70678 13.4474 5.96666L10.5842 8.75054C10.4773 8.8545 10.4296 9.00516 10.4573 9.1517L11.2125 13.1489C11.2834 13.524 10.8794 13.8081 10.5503 13.6144L7.22523 11.6573Z" fill="#001D55"/>
</svg>
